<svg id="Effect" enable-background="new 0 0 36 36" height="512" viewBox="0 0 36 36" width="512" xmlns="http://www.w3.org/2000/svg"><g><path d="m4.167 8.377c0 6.917-3.583 11.667-3.583 15s1.916 10.333 17.249 10.333 17.583-9.417 17.583-13.083c.001-17.167-31.249-24.5-31.249-12.25z" fill="#efefef"/></g><g><path d="m24.25 9.75h-1.882-.118v1c0 .552-.448 1-1 1h-6.5c-.552 0-1-.448-1-1v-1h-.118-1.882c-1.105 0-2 .895-2 2v15.5c0 1.105.895 2 2 2h12.5c1.105 0 2-.895 2-2v-15.5c0-1.105-.895-2-2-2z" fill="#f3f3f1"/></g><g><path d="m22.25 8.75v2c0 .552-.448 1-1 1h-6.5c-.552 0-1-.448-1-1v-2h2.25c0-1.1.9-2 2-2s2 .9 2 2z" fill="#2fdf84"/></g><g><circle cx="16.5" cy="19.5" fill="#2fdf84" r="3.75"/></g><g><path d="m24.5 10.75v-.975c-.083-.01-.164-.025-.25-.025h-1.882-.118v1c0 .552-.448 1-1 1h2.25c.552 0 1-.448 1-1z" fill="#d5dbe1"/></g><g><path d="m12 27.25v-15.5c0-1.019.765-1.851 1.75-1.975v-.025h-.118-1.882c-1.105 0-2 .895-2 2v15.5c0 1.105.895 2 2 2h2.25c-1.105 0-2-.895-2-2z" fill="#d5dbe1"/></g><g><path d="m19.125 7.1c-.321-.22-.708-.35-1.125-.35-1.1 0-2 .9-2 2h2.25c0-.683.348-1.289.875-1.65z" fill="#00b871"/></g><g><path d="m16 10.75v-2h-2.25v2c0 .552.448 1 1 1h2.25c-.552 0-1-.448-1-1z" fill="#00b871"/></g><g><path d="m15 19.5c0-1.676 1.107-3.079 2.625-3.559-.357-.113-.73-.191-1.125-.191-2.071 0-3.75 1.679-3.75 3.75s1.679 3.75 3.75 3.75c.395 0 .768-.078 1.125-.191-1.518-.48-2.625-1.883-2.625-3.559z" fill="#00b871"/></g><g><path d="m22.5 17h.75v1.5h-.75z"/></g><g><path d="m22.5 14h.75v1.5h-.75z"/></g><g><path d="m22.5 20h.75v1.5h-.75z"/></g><g><path d="m22.5 23h.75v1.5h-.75z"/></g><g><path d="m12.75 25.5h10.5v1.5h-10.5z"/></g><g><path d="m16.5 24c-2.481 0-4.5-2.019-4.5-4.5s2.019-4.5 4.5-4.5 4.5 2.019 4.5 4.5-2.019 4.5-4.5 4.5zm0-7.5c-1.654 0-3 1.346-3 3s1.346 3 3 3 3-1.346 3-3-1.346-3-3-3z"/></g><g><path d="m14.379 22.682-1.061-1.061 2.432-2.432v-3.439h1.5v3.75c0 .199-.079.39-.22.53z"/></g><g><path d="m24.25 30h-12.5c-1.517 0-2.75-1.233-2.75-2.75v-15.5c0-1.517 1.233-2.75 2.75-2.75h1.883v1.5h-1.883c-.689 0-1.25.561-1.25 1.25v15.5c0 .689.561 1.25 1.25 1.25h12.5c.689 0 1.25-.561 1.25-1.25v-15.5c0-.689-.561-1.25-1.25-1.25h-1.883v-1.5h1.883c1.517 0 2.75 1.233 2.75 2.75v15.5c0 1.517-1.233 2.75-2.75 2.75z"/></g><g><path d="m21.25 12.5h-6.5c-.965 0-1.75-.785-1.75-1.75v-2c0-.414.336-.75.75-.75h1.604c.328-1.153 1.39-2 2.646-2s2.318.847 2.646 2h1.604c.414 0 .75.336.75.75v2c0 .965-.785 1.75-1.75 1.75zm-6.75-3v1.25c0 .138.112.25.25.25h6.5c.138 0 .25-.112.25-.25v-1.25h-1.5c-.414 0-.75-.336-.75-.75 0-.689-.561-1.25-1.25-1.25s-1.25.561-1.25 1.25c0 .414-.336.75-.75.75z"/></g><g><path d="m19.875 3.665h2v1h-2z" fill="#a4afc1"/></g><g><path d="m14.125 3.665h2v1h-2z" fill="#a4afc1"/></g><g><path d="m17.625.415h1v2h-1z" fill="#a4afc1"/></g><g><path d="m5.645 21c-.827 0-1.5-.673-1.5-1.5s.673-1.5 1.5-1.5 1.5.673 1.5 1.5-.673 1.5-1.5 1.5zm0-2c-.275 0-.5.224-.5.5s.225.5.5.5.5-.224.5-.5-.225-.5-.5-.5z" fill="#a4afc1"/></g></svg>