<svg id="Effect" enable-background="new 0 0 36 36" height="512" viewBox="0 0 36 36" width="512" xmlns="http://www.w3.org/2000/svg"><g><path d="m31.833 8.377c0 6.917 3.583 11.667 3.583 15s-1.916 10.333-17.249 10.333-17.584-9.417-17.584-13.083c0-17.167 31.25-24.5 31.25-12.25z" fill="#efefef"/></g><g><path d="m29.25 22.63c0-2.162-1.709-3.911-3.806-3.879-1.984.03-3.656 1.751-3.694 3.803-.023 1.266.54 2.397 1.428 3.122.534.436.879 1.069.879 1.772v1.029c0 .509.258.772.577.772h1.731c.319 0 .577-.267.577-.597v-1.105c0-.755.367-1.437.932-1.916.84-.71 1.376-1.791 1.376-3.001z" fill="#2fdf84"/></g><g><path d="m20.25 9.75h-2v1c0 .552-.448 1-1 1h-5.5c-.552 0-1-.448-1-1v-1h-2c-1.1 0-2 .9-2 2v12.5c0 1.1.9 2 2 2h11.5c1.1 0 2-.9 2-2v-12.5c0-1.1-.9-2-2-2z" fill="#f3f3f1"/></g><g><path d="m18.25 8.75v2c0 .552-.448 1-1 1h-5.5c-.552 0-1-.448-1-1v-2h1.75c0-1.1.9-2 2-2s2 .9 2 2z" fill="#2fdf84"/></g><g><path d="m26.308 28.478v-1.029c0-.703-.346-1.337-.879-1.772-.888-.725-1.451-1.856-1.428-3.122.031-1.671 1.151-3.105 2.635-3.603-.377-.125-.773-.206-1.191-.2-1.984.03-3.656 1.751-3.694 3.803-.023 1.266.54 2.397 1.428 3.122.534.436.879 1.069.879 1.772v1.029c0 .509.258.772.577.772h1.731c.097 0 .183-.031.263-.074-.189-.108-.321-.338-.321-.698z" fill="#00b871"/></g><g><path d="m20.5 10.75v-.975c-.083-.011-.164-.025-.25-.025h-2v1c0 .552-.448 1-1 1h2.25c.552 0 1-.448 1-1z" fill="#d5dbe1"/></g><g><path d="m9 24.25v-12.5c0-1.014.768-1.849 1.75-1.975v-.025h-2c-1.1 0-2 .9-2 2v12.5c0 1.1.9 2 2 2h2.25c-1.1 0-2-.9-2-2z" fill="#d5dbe1"/></g><g><path d="m13 10.75v-2h1.75c0-.683.348-1.289.875-1.65-.321-.22-.708-.35-1.125-.35-1.1 0-2 .9-2 2h-1.75v2c0 .552.448 1 1 1h2.25c-.552 0-1-.448-1-1z" fill="#00b871"/></g><g><path d="m26.365 30h-1.73c-.659 0-1.327-.523-1.327-1.522v-1.029c0-.444-.22-.878-.604-1.191-1.109-.905-1.729-2.261-1.703-3.717.046-2.467 2.034-4.503 4.432-4.54 1.195-.034 2.32.438 3.18 1.285.894.881 1.387 2.068 1.387 3.344 0 1.388-.598 2.69-1.64 3.574-.425.359-.668.849-.668 1.344v1.105c0 .743-.595 1.347-1.327 1.347zm-1.557-1.5h1.385v-.952c0-.938.437-1.844 1.198-2.488.705-.598 1.109-1.483 1.109-2.43 0-.87-.334-1.679-.94-2.276-.571-.562-1.29-.847-2.104-.854-1.57.023-2.924 1.429-2.954 3.067-.019.993.401 1.915 1.152 2.527.733.6 1.154 1.457 1.154 2.354v1.029z"/></g><g><path d="m24.25 26h2.5v1.5h-2.5z"/></g><g><path d="m19.76 27h-11.01c-1.517 0-2.75-1.233-2.75-2.75v-12.5c0-1.517 1.233-2.75 2.75-2.75h1.88v1.5h-1.88c-.689 0-1.25.561-1.25 1.25v12.5c0 .689.561 1.25 1.25 1.25h11.01z"/></g><g><path d="m23 16.62h-1.5v-4.87c0-.689-.561-1.25-1.25-1.25h-1.87v-1.5h1.87c1.517 0 2.75 1.233 2.75 2.75z"/></g><g><path d="m17.25 12.5h-5.5c-.965 0-1.75-.785-1.75-1.75v-2c0-.414.336-.75.75-.75h1.104c.328-1.153 1.39-2 2.646-2s2.318.847 2.646 2h1.104c.414 0 .75.336.75.75v2c0 .965-.785 1.75-1.75 1.75zm-5.75-3v1.25c0 .138.112.25.25.25h5.5c.138 0 .25-.112.25-.25v-1.25h-1c-.414 0-.75-.336-.75-.75 0-.689-.561-1.25-1.25-1.25s-1.25.561-1.25 1.25c0 .414-.336.75-.75.75z"/></g><g><path d="m9.75 14h9.5v1.5h-9.5z"/></g><g><path d="m9.75 17h9.5v1.5h-9.5z"/></g><g><path d="m9.75 20h9.27v1.5h-9.27z"/></g><g><path d="m31 18.12c-.827 0-1.5-.673-1.5-1.5s.673-1.5 1.5-1.5 1.5.673 1.5 1.5-.673 1.5-1.5 1.5zm0-2c-.275 0-.5.225-.5.5s.225.5.5.5.5-.225.5-.5-.225-.5-.5-.5z" fill="#a4afc1"/></g><g><path d="m6.418 4.546h2v1h-2z" fill="#a4afc1" transform="matrix(.707 -.707 .707 .707 -1.396 6.723)"/></g><g><path d="m2.352 8.612h2v1h-2z" fill="#a4afc1" transform="matrix(.707 -.707 .707 .707 -5.462 5.039)"/></g><g><path d="m3.029 4.046h1v2.001h-1z" fill="#a4afc1" transform="matrix(.707 -.707 .707 .707 -2.535 3.973)"/></g></svg>