<svg id="Effect" enable-background="new 0 0 36 36" height="512" viewBox="0 0 36 36" width="512" xmlns="http://www.w3.org/2000/svg"><g><path d="m27.623 4.167c-6.917 0-11.667-3.583-15-3.583s-10.333 1.916-10.333 17.249 9.417 17.583 13.083 17.583c17.167.001 24.5-31.249 12.25-31.249z" fill="#efefef"/></g><g><path d="m20.25 9.75h-2v1c0 .552-.448 1-1 1h-5.5c-.552 0-1-.448-1-1v-1h-2c-1.1 0-2 .9-2 2v12.5c0 1.1.9 2 2 2h11.5c1.1 0 2-.9 2-2v-12.5c0-1.1-.9-2-2-2z" fill="#f3f3f1"/></g><g><path d="m18.25 8.75v2c0 .552-.448 1-1 1h-5.5c-.552 0-1-.448-1-1v-2h1.75c0-1.1.9-2 2-2s2 .9 2 2z" fill="#2fdf84"/></g><g><path d="m28.25 29.25h-5.5c-.552 0-1-.448-1-1v-3.5c0-.552.448-1 1-1h5.5c.552 0 1 .448 1 1v3.5c0 .552-.448 1-1 1z" fill="#2fdf84"/></g><g><path d="m20.5 10.75v-.975c-.083-.011-.164-.025-.25-.025h-2v1c0 .552-.448 1-1 1h2.25c.552 0 1-.448 1-1z" fill="#d5dbe1"/></g><g><path d="m9 24.25v-12.5c0-1.014.768-1.849 1.75-1.975v-.025h-2c-1.1 0-2 .9-2 2v12.5c0 1.1.9 2 2 2h2.25c-1.1 0-2-.9-2-2z" fill="#d5dbe1"/></g><g><path d="m13 10.75v-2h1.75c0-.683.348-1.289.875-1.65-.321-.22-.708-.35-1.125-.35-1.1 0-2 .9-2 2h-1.75v2c0 .552.448 1 1 1h2.25c-.552 0-1-.448-1-1z" fill="#00b871"/></g><g><path d="m24 28.25v-3.5c0-.552.448-1 1-1h-2.25c-.552 0-1 .448-1 1v3.5c0 .552.448 1 1 1h2.25c-.552 0-1-.448-1-1z" fill="#00b871"/></g><g><path d="m28.25 30h-5.5c-.965 0-1.75-.785-1.75-1.75v-3.5c0-.965.785-1.75 1.75-1.75h5.5c.965 0 1.75.785 1.75 1.75v3.5c0 .965-.785 1.75-1.75 1.75zm-5.5-5.5c-.138 0-.25.112-.25.25v3.5c0 .138.112.25.25.25h5.5c.138 0 .25-.112.25-.25v-3.5c0-.138-.112-.25-.25-.25z"/></g><g><path d="m27.25 24.5h-3.5c-.414 0-.75-.336-.75-.75v-2.25c0-1.379 1.121-2.5 2.5-2.5s2.5 1.121 2.5 2.5v2.25c0 .414-.336.75-.75.75zm-2.75-1.5h2v-1.5c0-.552-.448-1-1-1s-1 .448-1 1z"/></g><g><path d="m18.75 27h-10c-1.517 0-2.75-1.233-2.75-2.75v-12.5c0-1.517 1.233-2.75 2.75-2.75h1.88v1.5h-1.88c-.689 0-1.25.561-1.25 1.25v12.5c0 .689.561 1.25 1.25 1.25h10z"/></g><g><path d="m23 18.05h-1.5v-6.3c0-.689-.561-1.25-1.25-1.25h-1.87v-1.5h1.87c1.517 0 2.75 1.233 2.75 2.75z"/></g><g><path d="m17.25 12.5h-5.5c-.965 0-1.75-.785-1.75-1.75v-2c0-.414.336-.75.75-.75h1.104c.328-1.153 1.39-2 2.646-2s2.318.847 2.646 2h1.104c.414 0 .75.336.75.75v2c0 .965-.785 1.75-1.75 1.75zm-5.75-3v1.25c0 .138.112.25.25.25h5.5c.138 0 .25-.112.25-.25v-1.25h-1c-.414 0-.75-.336-.75-.75 0-.689-.561-1.25-1.25-1.25s-1.25.561-1.25 1.25c0 .414-.336.75-.75.75z"/></g><g><path d="m9.75 14h9.5v1.5h-9.5z"/></g><g><path d="m9.75 17h9.5v1.5h-9.5z"/></g><g><path d="m9.75 20h9.5v1.5h-9.5z"/></g><g><path d="m16 32.25c-.827 0-1.5-.673-1.5-1.5s.673-1.5 1.5-1.5 1.5.673 1.5 1.5-.673 1.5-1.5 1.5zm0-2c-.275 0-.5.225-.5.5s.225.5.5.5.5-.225.5-.5-.225-.5-.5-.5z" fill="#a4afc1"/></g><g><path d="m29.981 18.783h1v2h-1z" fill="#a4afc1" transform="matrix(.707 -.707 .707 .707 -5.061 27.347)"/></g><g><path d="m25.914 14.717h1v2h-1z" fill="#a4afc1" transform="matrix(.707 -.707 .707 .707 -3.377 23.281)"/></g><g><path d="m29.481 15.394h2v1h-2z" fill="#a4afc1" transform="matrix(.707 -.707 .707 .707 -2.311 26.208)"/></g></svg>