<svg id="Effect" enable-background="new 0 0 36 36" height="512" viewBox="0 0 36 36" width="512" xmlns="http://www.w3.org/2000/svg"><g><path d="m31.833 27.623c0-6.917 3.583-11.667 3.583-15s-1.916-10.333-17.249-10.333-17.584 9.417-17.584 13.083c0 17.167 31.25 24.5 31.25 12.25z" fill="#efefef"/></g><g><path d="m20.25 9.75h-2v1c0 .552-.448 1-1 1h-5.5c-.552 0-1-.448-1-1v-1h-2c-1.1 0-2 .9-2 2v12.5c0 1.1.9 2 2 2h11.5c1.1 0 2-.9 2-2v-12.5c0-1.1-.9-2-2-2z" fill="#f3f3f1"/></g><g><path d="m18.25 8.75v2c0 .552-.448 1-1 1h-5.5c-.552 0-1-.448-1-1v-2h1.75c0-1.1.9-2 2-2s2 .9 2 2z" fill="#2fdf84"/></g><g><path d="m26.25 18.75c-1.23 0-2.29.737-2.75 1.793-.46-1.056-1.52-1.793-2.75-1.793-1.655 0-3 1.34-3 2.988 0 3.237 5.75 7.512 5.75 7.512s5.75-4.275 5.75-7.512c0-1.648-1.345-2.988-3-2.988z" fill="#2fdf84"/></g><g><path d="m20.5 10.75v-.975c-.083-.011-.164-.025-.25-.025h-2v1c0 .552-.448 1-1 1h2.25c.552 0 1-.448 1-1z" fill="#d5dbe1"/></g><g><path d="m9 24.25v-12.5c0-1.014.768-1.849 1.75-1.975v-.025h-2c-1.1 0-2 .9-2 2v12.5c0 1.1.9 2 2 2h2.25c-1.1 0-2-.9-2-2z" fill="#d5dbe1"/></g><g><path d="m13 10.75v-2h1.75c0-.683.348-1.289.875-1.65-.321-.22-.708-.35-1.125-.35-1.1 0-2 .9-2 2h-1.75v2c0 .552.448 1 1 1h2.25c-.552 0-1-.448-1-1z" fill="#00b871"/></g><g><path d="m25.75 20.543c.311-.715.901-1.277 1.629-1.569-.349-.142-.729-.223-1.129-.223-.599 0-1.156.177-1.625.479.494.316.889.771 1.125 1.313z" fill="#00b871"/></g><g><path d="m20 21.738c0-1.25.775-2.319 1.871-2.765-.347-.14-.723-.223-1.121-.223-1.655 0-3 1.34-3 2.988 0 3.237 5.75 7.512 5.75 7.512s.466-.349 1.125-.912c-1.673-1.429-4.625-4.277-4.625-6.6z" fill="#00b871"/></g><g><path d="m23.5 30c-.157 0-.314-.05-.447-.148-.62-.46-6.053-4.601-6.053-8.114 0-2.061 1.683-3.738 3.75-3.738 1.063 0 2.054.446 2.75 1.194.696-.748 1.687-1.194 2.75-1.194 2.067 0 3.75 1.677 3.75 3.738 0 3.513-5.433 7.653-6.053 8.113-.133.099-.29.149-.447.149zm-2.75-10.5c-1.24 0-2.25 1.004-2.25 2.238 0 2.142 3.275 5.191 5 6.564 1.724-1.374 5-4.427 5-6.564 0-1.234-1.01-2.238-2.25-2.238-.897 0-1.707.527-2.062 1.343-.238.547-1.137.547-1.375 0-.356-.816-1.166-1.343-2.063-1.343z"/></g><g><path d="m16.36 27h-7.61c-1.517 0-2.75-1.233-2.75-2.75v-12.5c0-1.517 1.233-2.75 2.75-2.75h1.88v1.5h-1.88c-.689 0-1.25.561-1.25 1.25v12.5c0 .689.561 1.25 1.25 1.25h7.61z"/></g><g><path d="m23 15.94h-1.5v-4.19c0-.689-.561-1.25-1.25-1.25h-1.87v-1.5h1.87c1.517 0 2.75 1.233 2.75 2.75z"/></g><g><path d="m17.25 12.5h-5.5c-.965 0-1.75-.785-1.75-1.75v-2c0-.414.336-.75.75-.75h1.104c.328-1.153 1.39-2 2.646-2s2.318.847 2.646 2h1.104c.414 0 .75.336.75.75v2c0 .965-.785 1.75-1.75 1.75zm-5.75-3v1.25c0 .138.112.25.25.25h5.5c.138 0 .25-.112.25-.25v-1.25h-1c-.414 0-.75-.336-.75-.75 0-.689-.561-1.25-1.25-1.25s-1.25.561-1.25 1.25c0 .414-.336.75-.75.75z"/></g><g><path d="m9.75 14h9.5v1.5h-9.5z"/></g><g><path d="m9.75 17h6.54v1.5h-6.54z"/></g><g><path d="m9.75 20h5.09v1.5h-5.09z"/></g><g><path d="m2.674 4.977h1v2h-1z" fill="#a4afc1" transform="matrix(.707 -.707 .707 .707 -3.296 3.993)"/></g><g><path d="m1.997 9.543h2v1h-2z" fill="#a4afc1" transform="matrix(.707 -.707 .707 .707 -6.224 5.061)"/></g><g><path d="m6.062 5.477h2v1h-2z" fill="#a4afc1" transform="matrix(.707 -.707 .707 .707 -2.158 6.745)"/></g><g><path d="m29.25 15.78c-.827 0-1.5-.673-1.5-1.5s.673-1.5 1.5-1.5 1.5.673 1.5 1.5-.673 1.5-1.5 1.5zm0-2c-.275 0-.5.225-.5.5s.225.5.5.5.5-.225.5-.5-.225-.5-.5-.5z" fill="#a4afc1"/></g></svg>