<svg id="Effect" enable-background="new 0 0 36 36" height="512" viewBox="0 0 36 36" width="512" xmlns="http://www.w3.org/2000/svg"><g><path d="m27.623 31.833c-6.917 0-11.667 3.583-15 3.583s-10.333-1.916-10.333-17.249 9.417-17.584 13.083-17.584c17.167 0 24.5 31.25 12.25 31.25z" fill="#efefef"/></g><g><path d="m20.25 9.75h-2v1c0 .552-.448 1-1 1h-5.5c-.552 0-1-.448-1-1v-1h-2c-1.1 0-2 .9-2 2v12.5c0 1.1.9 2 2 2h11.5c1.1 0 2-.9 2-2v-12.5c0-1.1-.9-2-2-2z" fill="#f3f3f1"/></g><g><path d="m18.25 8.75v2c0 .552-.448 1-1 1h-5.5c-.552 0-1-.448-1-1v-2h1.75c0-1.1.9-2 2-2s2 .9 2 2z" fill="#2fdf84"/></g><g><path d="m24 29.25s5.25-2.321 5.25-6.964c0-1.857 0-4.179 0-4.179l-5.25-1.607-5.25 1.607v4.179c0 4.643 5.25 6.964 5.25 6.964z" fill="#2fdf84"/></g><g><path d="m20.5 10.75v-.975c-.083-.011-.164-.025-.25-.025h-2v1c0 .552-.448 1-1 1h2.25c.552 0 1-.448 1-1z" fill="#d5dbe1"/></g><g><path d="m9 24.25v-12.5c0-1.014.768-1.849 1.75-1.975v-.025h-2c-1.1 0-2 .9-2 2v12.5c0 1.1.9 2 2 2h2.25c-1.1 0-2-.9-2-2z" fill="#d5dbe1"/></g><g><path d="m13 10.75v-2h1.75c0-.683.348-1.289.875-1.65-.321-.22-.708-.35-1.125-.35-1.1 0-2 .9-2 2h-1.75v2c0 .552.448 1 1 1h2.25c-.552 0-1-.448-1-1z" fill="#00b871"/></g><g><path d="m21 22.286c0-2.786 0-4.179 0-4.179l4.125-1.263-1.125-.344-5.25 1.607v4.179c0 4.643 5.25 6.964 5.25 6.964s.471-.211 1.125-.623c-1.542-.971-4.125-3.082-4.125-6.341z" fill="#00b871"/></g><g><path d="m24 30c-.104 0-.207-.021-.303-.064-.233-.103-5.697-2.578-5.697-7.65v-4.179c0-.33.215-.621.53-.717l5.25-1.607c.144-.045.296-.045.439 0l5.25 1.607c.315.096.53.387.53.717v4.179c0 5.072-5.464 7.547-5.697 7.649-.095.044-.198.065-.302.065zm-4.5-11.338v3.624c0 3.494 3.442 5.571 4.499 6.127 1.055-.558 4.501-2.646 4.501-6.127v-3.624l-4.5-1.378z"/></g><g><path d="m23.25 16.5h1.5v12.5h-1.5z"/></g><g><path d="m18.75 21.536h10.5v1.5h-10.5z"/></g><g><path d="m16.67 27h-7.92c-1.517 0-2.75-1.233-2.75-2.75v-12.5c0-1.517 1.233-2.75 2.75-2.75h1.88v1.5h-1.88c-.689 0-1.25.561-1.25 1.25v12.5c0 .689.561 1.25 1.25 1.25h7.92z"/></g><g><path d="m23 13.9h-1.5v-2.15c0-.689-.561-1.25-1.25-1.25h-1.87v-1.5h1.87c1.516 0 2.75 1.233 2.75 2.75z"/></g><g><path d="m17.25 12.5h-5.5c-.965 0-1.75-.785-1.75-1.75v-2c0-.414.336-.75.75-.75h1.104c.327-1.153 1.39-2 2.646-2s2.319.847 2.646 2h1.104c.414 0 .75.336.75.75v2c0 .965-.785 1.75-1.75 1.75zm-5.75-3v1.25c0 .138.112.25.25.25h5.5c.138 0 .25-.112.25-.25v-1.25h-1c-.414 0-.75-.336-.75-.75 0-.689-.561-1.25-1.25-1.25s-1.25.561-1.25 1.25c0 .414-.336.75-.75.75z"/></g><g><path d="m9.75 14h9.5v1.5h-9.5z"/></g><g><path d="m9.75 17h6.03v1.5h-6.03z"/></g><g><path d="m9.75 20h6v1.5h-6z"/></g><g><path d="m14.125 0h1v2h-1z" fill="#a4afc1"/></g><g><path d="m10.625 3h2v1h-2z" fill="#a4afc1"/></g><g><path d="m16.375 3h2v1h-2z" fill="#a4afc1"/></g><g><path d="m32.98 16.78c-.827 0-1.5-.673-1.5-1.5s.673-1.5 1.5-1.5 1.5.673 1.5 1.5-.673 1.5-1.5 1.5zm0-2c-.276 0-.5.225-.5.5s.224.5.5.5.5-.225.5-.5-.224-.5-.5-.5z" fill="#a4afc1"/></g></svg>