<svg id="Effect" enable-background="new 0 0 36 36" height="512" viewBox="0 0 36 36" width="512" xmlns="http://www.w3.org/2000/svg"><g><path d="m27.623 31.833c-6.917 0-11.667 3.583-15 3.583s-10.333-1.916-10.333-17.249 9.417-17.584 13.083-17.584c17.167 0 24.5 31.25 12.25 31.25z" fill="#efefef"/></g><g><path d="m20.25 9.75h-2v1c0 .552-.448 1-1 1h-5.5c-.552 0-1-.448-1-1v-1h-2c-1.1 0-2 .9-2 2v12.5c0 1.1.9 2 2 2h11.5c1.1 0 2-.9 2-2v-12.5c0-1.1-.9-2-2-2z" fill="#f3f3f1"/></g><g><path d="m18.25 8.75v2c0 .552-.448 1-1 1h-5.5c-.552 0-1-.448-1-1v-2h1.75c0-1.1.9-2 2-2s2 .9 2 2z" fill="#2fdf84"/></g><g><path d="m24 29.25s5.25-2.232 5.25-6.696c0-1.786 0-4.018 0-4.018l-5.25-1.786-5.25 1.786v4.018c0 4.464 5.25 6.696 5.25 6.696z" fill="#2fdf84"/></g><g><path d="m20.5 10.75v-.975c-.083-.011-.164-.025-.25-.025h-2v1c0 .552-.448 1-1 1h2.25c.552 0 1-.448 1-1z" fill="#d5dbe1"/></g><g><path d="m9 24.25v-12.5c0-1.014.768-1.849 1.75-1.975v-.025h-2c-1.1 0-2 .9-2 2v12.5c0 1.1.9 2 2 2h2.25c-1.1 0-2-.9-2-2z" fill="#d5dbe1"/></g><g><path d="m13 10.75v-2h1.75c0-.683.348-1.289.875-1.65-.321-.22-.708-.35-1.125-.35-1.1 0-2 .9-2 2h-1.75v2c0 .552.448 1 1 1h2.25c-.552 0-1-.448-1-1z" fill="#00b871"/></g><g><path d="m21 22.554c0-2.679 0-4.018 0-4.018l4.125-1.403-1.125-.383-5.25 1.786v4.018c0 4.464 5.25 6.696 5.25 6.696s.471-.203 1.125-.599c-1.542-.934-4.125-2.963-4.125-6.097z" fill="#00b871"/></g><g><path d="m24 30c-.1 0-.2-.02-.294-.06-.232-.099-5.706-2.483-5.706-7.386v-4.018c0-.321.204-.606.509-.71l5.25-1.786c.156-.053.326-.053.482 0l5.25 1.786c.305.104.509.389.509.71v4.018c0 4.903-5.474 7.287-5.706 7.387-.094.039-.194.059-.294.059zm-4.5-10.927v3.48c0 3.333 3.456 5.337 4.5 5.865 1.044-.528 4.5-2.532 4.5-5.865v-3.48l-4.5-1.531z"/></g><g><path d="m23.75 25.5c-.198 0-.39-.078-.53-.22l-2-2 1.061-1.061 1.389 1.389 2.48-3.308 1.199.9-3 4c-.13.174-.329.282-.547.298-.017.001-.034.002-.052.002z"/></g><g><path d="m16.59 27h-7.84c-1.517 0-2.75-1.233-2.75-2.75v-12.5c0-1.517 1.233-2.75 2.75-2.75h1.88v1.5h-1.88c-.689 0-1.25.561-1.25 1.25v12.5c0 .689.561 1.25 1.25 1.25h7.84z"/></g><g><path d="m23 14.18h-1.5v-2.43c0-.689-.561-1.25-1.25-1.25h-1.87v-1.5h1.87c1.517 0 2.75 1.233 2.75 2.75z"/></g><g><path d="m17.25 12.5h-5.5c-.965 0-1.75-.785-1.75-1.75v-2c0-.414.336-.75.75-.75h1.104c.328-1.153 1.39-2 2.646-2s2.318.847 2.646 2h1.104c.414 0 .75.336.75.75v2c0 .965-.785 1.75-1.75 1.75zm-5.75-3v1.25c0 .138.112.25.25.25h5.5c.138 0 .25-.112.25-.25v-1.25h-1c-.414 0-.75-.336-.75-.75 0-.689-.561-1.25-1.25-1.25s-1.25.561-1.25 1.25c0 .414-.336.75-.75.75z"/></g><g><path d="m9.75 14h9.5v1.5h-9.5z"/></g><g><path d="m9.75 17h6.12v1.5h-6.12z"/></g><g><path d="m9.75 20h6v1.5h-6z"/></g><g><path d="m14.125 0h1v2h-1z" fill="#a4afc1"/></g><g><path d="m10.625 3h2v1h-2z" fill="#a4afc1"/></g><g><path d="m16.375 3h2v1h-2z" fill="#a4afc1"/></g><g><path d="m30.98 16.25c-.827 0-1.5-.673-1.5-1.5s.673-1.5 1.5-1.5 1.5.673 1.5 1.5-.672 1.5-1.5 1.5zm0-2c-.275 0-.5.225-.5.5s.225.5.5.5.5-.225.5-.5-.224-.5-.5-.5z" fill="#a4afc1"/></g></svg>