<svg id="Effect" enable-background="new 0 0 36 36" height="512" viewBox="0 0 36 36" width="512" xmlns="http://www.w3.org/2000/svg"><g><path d="m4.167 8.377c0 6.917-3.583 11.667-3.583 15s1.916 10.333 17.249 10.333 17.583-9.417 17.583-13.083c.001-17.167-31.249-24.5-31.249-12.25z" fill="#efefef"/></g><g><path d="m20.25 9.75h-2v1c0 .552-.448 1-1 1h-5.5c-.552 0-1-.448-1-1v-1h-2c-1.1 0-2 .9-2 2v12.5c0 1.1.9 2 2 2h11.5c1.1 0 2-.9 2-2v-12.5c0-1.1-.9-2-2-2z" fill="#f3f3f1"/></g><g><path d="m18.25 8.75v2c0 .552-.448 1-1 1h-5.5c-.552 0-1-.448-1-1v-2h1.75c0-1.1.9-2 2-2s2 .9 2 2z" fill="#2fdf84"/></g><g><circle cx="24.125" cy="24.125" fill="#2fdf84" r="5.125"/></g><g><path d="m20.5 10.75v-.975c-.083-.011-.164-.025-.25-.025h-2v1c0 .552-.448 1-1 1h2.25c.552 0 1-.448 1-1z" fill="#d5dbe1"/></g><g><path d="m9 24.25v-12.5c0-1.014.768-1.849 1.75-1.975v-.025h-2c-1.1 0-2 .9-2 2v12.5c0 1.1.9 2 2 2h2.25c-1.1 0-2-.9-2-2z" fill="#d5dbe1"/></g><g><path d="m13 10.75v-2h1.75c0-.683.348-1.289.875-1.65-.321-.22-.708-.35-1.125-.35-1.1 0-2 .9-2 2h-1.75v2c0 .552.448 1 1 1h2.25c-.552 0-1-.448-1-1z" fill="#00b871"/></g><g><path d="m21.25 24.125c0-2.443 1.712-4.478 4-4.992-.363-.082-.737-.133-1.125-.133-2.83 0-5.125 2.295-5.125 5.125s2.295 5.125 5.125 5.125c.388 0 .762-.051 1.125-.133-2.288-.514-4-2.549-4-4.992z" fill="#00b871"/></g><g><path d="m24 30c-3.309 0-6-2.691-6-6h1.5c0 2.481 2.019 4.5 4.5 4.5s4.5-2.019 4.5-4.5-2.019-4.5-4.5-4.5c-1.464 0-2.737.665-3.587 1.872l-1.227-.863c1.123-1.595 2.876-2.509 4.814-2.509 3.309 0 6 2.691 6 6s-2.691 6-6 6z"/></g><g><path d="m22.75 22h-2.945c-.414 0-.75-.336-.75-.75v-3h1.5v2.25h2.195z"/></g><g><path d="m16.06 27h-7.31c-1.517 0-2.75-1.233-2.75-2.75v-12.5c0-1.517 1.233-2.75 2.75-2.75h1.88v1.5h-1.88c-.689 0-1.25.561-1.25 1.25v12.5c0 .689.561 1.25 1.25 1.25h7.31z"/></g><g><path d="m23 15.95h-1.5v-4.2c0-.689-.561-1.25-1.25-1.25h-1.87v-1.5h1.87c1.517 0 2.75 1.233 2.75 2.75z"/></g><g><path d="m17.25 12.5h-5.5c-.965 0-1.75-.785-1.75-1.75v-2c0-.414.336-.75.75-.75h1.104c.328-1.153 1.39-2 2.646-2s2.318.847 2.646 2h1.104c.414 0 .75.336.75.75v2c0 .965-.785 1.75-1.75 1.75zm-5.75-3v1.25c0 .138.112.25.25.25h5.5c.138 0 .25-.112.25-.25v-1.25h-1c-.414 0-.75-.336-.75-.75 0-.689-.561-1.25-1.25-1.25s-1.25.561-1.25 1.25c0 .414-.336.75-.75.75z"/></g><g><path d="m9.75 14h9.5v1.5h-9.5z"/></g><g><path d="m9.75 17h7.33v1.5h-7.33z"/></g><g><path d="m9.75 20h7.05v1.5h-7.05z"/></g><g><path d="m16 32.25c-.827 0-1.5-.673-1.5-1.5s.673-1.5 1.5-1.5 1.5.673 1.5 1.5-.673 1.5-1.5 1.5zm0-2c-.275 0-.5.225-.5.5s.225.5.5.5.5-.225.5-.5-.225-.5-.5-.5z" fill="#a4afc1"/></g><g><path d="m30.783 18.783h1v2h-1z" fill="#a4afc1" transform="matrix(.707 -.707 .707 .707 -4.826 27.915)"/></g><g><path d="m26.717 14.717h1v2h-1z" fill="#a4afc1" transform="matrix(.707 -.707 .707 .707 -3.142 23.849)"/></g><g><path d="m30.283 15.394h2v1h-2z" fill="#a4afc1" transform="matrix(.707 -.707 .707 .707 -2.076 26.776)"/></g></svg>