<svg id="Effect" enable-background="new 0 0 36 36" height="512" viewBox="0 0 36 36" width="512" xmlns="http://www.w3.org/2000/svg"><g><path d="m4.167 8.377c0 6.917-3.583 11.667-3.583 15s1.916 10.333 17.249 10.333 17.583-9.417 17.583-13.083c.001-17.167-31.249-24.5-31.249-12.25z" fill="#efefef"/></g><g><path d="m25.25 8.75v2c0 .552-.448 1-1 1h-5.5c-.552 0-1-.448-1-1v-2h1.75c0-1.1.9-2 2-2s2 .9 2 2z" fill="#f3f3f1"/></g><g><path d="m6.75 18.75v8.5h2.75l2-7.386s-1.458-1.114-4.75-1.114z" fill="#2fdf84"/></g><g><path d="m27.25 9.75h-2v1c0 .552-.448 1-1 1h-5.5c-.552 0-1-.448-1-1v-1h-2c-1.1 0-2 .9-2 2v9.467l7.15 1.463c.93.19 1.6 1.01 1.6 1.96v.431c1.445-.443 2.952-1.071 4.25-1.071 1.434 0 2.09.638 2.35 1.002.095-.233.15-.486.15-.752v-12.5c0-1.1-.9-2-2-2z" fill="#2fdf84"/></g><g><path d="m26.75 24c-1.298 0-2.805.628-4.25 1.071v-.431c0-.95-.67-1.77-1.6-1.96l-9.63-1.97-1.49 5.42c1.91.9 6.83 3.12 9.22 3.12 3 0 10.25-4 10.25-4s-.5-1.25-2.5-1.25z" fill="#f3f3f1"/></g><g><path d="m20 10.75v-2h1.75c0-.683.348-1.289.875-1.65-.321-.22-.708-.35-1.125-.35-1.1 0-2 .9-2 2h-1.75v2c0 .552.448 1 1 1h2.25c-.552 0-1-.448-1-1z" fill="#d5dbe1"/></g><g><path d="m6.75 18.75v8.5h2.25v-8.3c-.626-.117-1.367-.2-2.25-.2z" fill="#00b871"/></g><g><path d="m27.5 10.75v-.975c-.083-.011-.164-.025-.25-.025h-2v1c0 .552-.448 1-1 1h2.25c.552 0 1-.448 1-1z" fill="#00b871"/></g><g><path d="m29 24c-.38 0-.779.058-1.188.145.715.209 1.104.6 1.288.857.095-.233.15-.486.15-.752v-.236c-.083-.005-.161-.014-.25-.014z" fill="#00b871"/></g><g><path d="m24.725 24.357c-.118-.825-.739-1.506-1.575-1.677l-7.15-1.463v-9.467c0-1.014.768-1.849 1.75-1.975v-.025h-2c-1.1 0-2 .9-2 2v9.467l7.15 1.463c.93.19 1.6 1.01 1.6 1.96v.431c.738-.226 1.491-.5 2.225-.714z" fill="#00b871"/></g><g><path d="m24.75 24.64v.431c1.018-.312 2.065-.712 3.049-.923-.295-.086-.633-.148-1.049-.148-.635 0-1.321.151-2.025.357.014.093.025.187.025.283z" fill="#d5dbe1"/></g><g><path d="m12.03 26.13 1.37-4.984-2.13-.436-1.49 5.42c1.91.9 6.83 3.12 9.22 3.12.314 0 .683-.052 1.077-.131-2.571-.483-6.411-2.218-8.047-2.989z" fill="#d5dbe1"/></g><g><path d="m14.5 17.9h-1.5v-6.15c0-1.517 1.233-2.75 2.75-2.75h1.87v1.5h-1.87c-.689 0-1.25.561-1.25 1.25z"/></g><g><path d="m30 21.47h-1.5v-9.72c0-.689-.561-1.25-1.25-1.25h-1.87v-1.5h1.87c1.517 0 2.75 1.233 2.75 2.75z"/></g><g><path d="m24.25 12.5h-5.5c-.965 0-1.75-.785-1.75-1.75v-2c0-.414.336-.75.75-.75h1.104c.328-1.153 1.39-2 2.646-2s2.318.847 2.646 2h1.104c.414 0 .75.336.75.75v2c0 .965-.785 1.75-1.75 1.75zm-5.75-3v1.25c0 .138.112.25.25.25h5.5c.138 0 .25-.112.25-.25v-1.25h-1c-.414 0-.75-.336-.75-.75 0-.689-.561-1.25-1.25-1.25s-1.25.561-1.25 1.25c0 .414-.336.75-.75.75z"/></g><g><path d="m16.75 14h9.5v1.5h-9.5z"/></g><g><path d="m16.75 17h9.5v1.5h-9.5z"/></g><g><path d="m23.62 20h2.63v1.5h-2.63z"/></g><g><path d="m9.5 28h-2.75c-.414 0-.75-.336-.75-.75v-8.5c0-.414.336-.75.75-.75 3.506 0 5.138 1.217 5.205 1.269.242.185.349.498.269.792l-2 7.386c-.088.326-.385.553-.724.553zm-2-1.5h1.426l1.698-6.271c-.523-.247-1.545-.615-3.124-.707z"/></g><g><path d="m19 30c-2.409 0-7.011-2-9.539-3.191l.639-1.357c4.11 1.938 7.354 3.049 8.9 3.049 2.028 0 6.632-2.19 9.045-3.454-.278-.159-.692-.296-1.295-.296-.878 0-1.964.361-3.013.712-1.163.388-2.365.788-3.487.788-2.107 0-4.889-1.003-5.006-1.045l.512-1.41c.026.01 2.652.955 4.494.955.878 0 1.964-.361 3.013-.712 1.163-.388 2.365-.788 3.487-.788 2.479 0 3.168 1.651 3.196 1.722.141.352-.003.752-.334.935-.302.166-7.455 4.092-10.612 4.092z"/></g><g><path d="m23.25 25.09h-1.5v-.45c0-.591-.421-1.106-1-1.226l-9.631-1.97.301-1.469 9.631 1.97c1.274.261 2.199 1.394 2.199 2.694z"/></g><g><path d="m21.125 0h1v2h-1z" fill="#a4afc1"/></g><g><path d="m17.625 3h2v1h-2z" fill="#a4afc1"/></g><g><path d="m23.375 3h2v1h-2z" fill="#a4afc1"/></g><g><path d="m7.875 14.88c-.827 0-1.5-.673-1.5-1.5s.673-1.5 1.5-1.5 1.5.673 1.5 1.5-.673 1.5-1.5 1.5zm0-2c-.275 0-.5.225-.5.5s.225.5.5.5.5-.225.5-.5-.225-.5-.5-.5z" fill="#a4afc1"/></g></svg>