<svg id="Effect" enable-background="new 0 0 36 36" height="512" viewBox="0 0 36 36" width="512" xmlns="http://www.w3.org/2000/svg"><g><path d="m4.167 27.623c0-6.917-3.583-11.667-3.583-15s1.916-10.333 17.249-10.333 17.583 9.417 17.583 13.083c.001 17.167-31.249 24.5-31.249 12.25z" fill="#efefef"/></g><g><path d="m20.25 9.75h-2v1c0 .552-.448 1-1 1h-5.5c-.552 0-1-.448-1-1v-1h-2c-1.1 0-2 .9-2 2v12.5c0 1.1.9 2 2 2h11.5c1.1 0 2-.9 2-2v-12.5c0-1.1-.9-2-2-2z" fill="#f3f3f1"/></g><g><path d="m18.25 8.75v2c0 .552-.448 1-1 1h-5.5c-.552 0-1-.448-1-1v-2h1.75c0-1.1.9-2 2-2s2 .9 2 2z" fill="#2fdf84"/></g><g><path d="m23.5 26.831-3.554 2.419 1.09-4.301-3.286-2.806 4.227-.24 1.523-4.153 1.523 4.153 4.227.24-3.286 2.806 1.09 4.301z" fill="#2fdf84"/></g><g><path d="m9 24.25v-12.5c0-1.014.768-1.849 1.75-1.975v-.025h-2c-1.1 0-2 .9-2 2v12.5c0 1.1.9 2 2 2h2.25c-1.1 0-2-.9-2-2z" fill="#d5dbe1"/></g><g><path d="m20.5 10.75v-.975c-.083-.011-.164-.025-.25-.025h-2v1c0 .552-.448 1-1 1h2.25c.552 0 1-.448 1-1z" fill="#d5dbe1"/></g><g><path d="m13 10.75v-2h1.75c0-.683.348-1.289.875-1.65-.321-.22-.708-.35-1.125-.35-1.1 0-2 .9-2 2h-1.75v2c0 .552.448 1 1 1h2.25c-.552 0-1-.448-1-1z" fill="#00b871"/></g><g><path d="m22.665 27.4.621-2.451-3.286-2.806 4.227-.24.398-1.085-1.125-3.068-1.523 4.153-4.227.24 3.286 2.806-1.09 4.301z" fill="#00b871"/></g><g><path d="m25.75 26.831-1.125.766 2.429 1.653-.469-1.85z" fill="#00b871"/></g><g><path d="m27.054 30c-.147 0-.294-.043-.422-.13l-3.132-2.132-3.132 2.132c-.258.176-.595.174-.852-.006-.255-.179-.374-.496-.297-.799l.975-3.849-2.932-2.504c-.233-.199-.321-.52-.223-.81.098-.291.362-.492.668-.51l3.735-.211 1.354-3.69c.108-.295.39-.491.704-.491s.596.196.704.492l1.354 3.69 3.735.211c.306.018.57.219.668.51.098.29.01.61-.223.81l-2.932 2.504.975 3.849c.077.303-.042.62-.297.799-.13.09-.28.135-.43.135zm-3.554-3.919c.147 0 .295.043.422.13l1.919 1.307-.604-2.384c-.07-.277.023-.569.24-.755l1.865-1.593-2.362-.134c-.299-.018-.559-.21-.662-.491l-.818-2.232-.819 2.232c-.103.281-.363.474-.662.491l-2.362.134 1.865 1.593c.217.186.31.478.24.755l-.604 2.384 1.919-1.307c.128-.087.276-.13.423-.13z"/></g><g><path d="m17.61 27h-8.86c-1.516 0-2.75-1.233-2.75-2.75v-12.5c0-1.517 1.234-2.75 2.75-2.75h1.88v1.5h-1.88c-.689 0-1.25.561-1.25 1.25v12.5c0 .689.561 1.25 1.25 1.25h8.86z"/></g><g><path d="m23 15.03h-1.5v-3.28c0-.689-.561-1.25-1.25-1.25h-1.87v-1.5h1.87c1.516 0 2.75 1.233 2.75 2.75z"/></g><g><path d="m17.25 12.5h-5.5c-.965 0-1.75-.785-1.75-1.75v-2c0-.414.336-.75.75-.75h1.104c.327-1.153 1.39-2 2.646-2s2.319.847 2.646 2h1.104c.414 0 .75.336.75.75v2c0 .965-.785 1.75-1.75 1.75zm-5.75-3v1.25c0 .138.112.25.25.25h5.5c.138 0 .25-.112.25-.25v-1.25h-1c-.414 0-.75-.336-.75-.75 0-.689-.561-1.25-1.25-1.25s-1.25.561-1.25 1.25c0 .414-.336.75-.75.75z"/></g><g><path d="m9.75 14h9.5v1.5h-9.5z"/></g><g><path d="m9.75 17h9.5v1.5h-9.5z"/></g><g><path d="m9.75 20h5.35v1.5h-5.35z"/></g><g><path d="m14.125 0h1v2h-1z" fill="#a4afc1"/></g><g><path d="m10.625 3h2v1h-2z" fill="#a4afc1"/></g><g><path d="m16.375 3h2v1h-2z" fill="#a4afc1"/></g><g><path d="m31.98 19.5c-.827 0-1.5-.673-1.5-1.5s.673-1.5 1.5-1.5 1.5.673 1.5 1.5-.673 1.5-1.5 1.5zm0-2c-.276 0-.5.225-.5.5s.224.5.5.5.5-.225.5-.5-.224-.5-.5-.5z" fill="#a4afc1"/></g></svg>