<svg id="Effect" enable-background="new 0 0 36 36" height="512" viewBox="0 0 36 36" width="512" xmlns="http://www.w3.org/2000/svg"><g><path d="m27.623 31.833c-6.917 0-11.667 3.583-15 3.583s-10.333-1.916-10.333-17.249 9.417-17.584 13.083-17.584c17.167 0 24.5 31.25 12.25 31.25z" fill="#efefef"/></g><g><path d="m20.25 9.75h-2v1c0 .552-.448 1-1 1h-5.5c-.552 0-1-.448-1-1v-1h-2c-1.1 0-2 .9-2 2v12.5c0 1.1.9 2 2 2h11.5c1.1 0 2-.9 2-2v-12.5c0-1.1-.9-2-2-2z" fill="#2fdf84"/></g><g><path d="m18.25 8.75v2c0 .552-.448 1-1 1h-5.5c-.552 0-1-.448-1-1v-2h1.75c0-1.1.9-2 2-2s2 .9 2 2z" fill="#f3f3f1"/></g><g><path d="m28.429 22.368-2.615-2.654c-.369-.369-.964-.368-1.333.001s-.369.964-.001 1.333l-.888-.888c-.368-.369-.964-.368-1.333.001s-.369.964-.001 1.333l.222.222-.222-.222-.444-.444c-.368-.369-.964-.368-1.333.001s-.369.964-.001 1.333l-2.664-2.664c-.368-.368-.964-.368-1.333.001s-.369.964-.001 1.333l4.542 4.542c-.689-.102-1.839-.141-2.546.565-.667.667-.649 1.129-.445 1.333.559.559.995-.329 3.553.887s4.202 1.108 5.331-.003l.889-.889.004-.004c1.52-1.52 1.979-3.555.619-5.117z" fill="#f3f3f1"/></g><g><path d="m20.5 10.75v-.975c-.083-.011-.164-.025-.25-.025h-2v1c0 .552-.448 1-1 1h2.25c.552 0 1-.448 1-1z" fill="#00b871"/></g><g><path d="m9 24.25v-12.5c0-1.014.768-1.849 1.75-1.975v-.025h-2c-1.1 0-2 .9-2 2v12.5c0 1.1.9 2 2 2h2.25c-1.1 0-2-.9-2-2z" fill="#00b871"/></g><g><path d="m13 10.75v-2h1.75c0-.683.348-1.289.875-1.65-.321-.22-.708-.35-1.125-.35-1.1 0-2 .9-2 2h-1.75v2c0 .552.448 1 1 1h2.25c-.552 0-1-.448-1-1z" fill="#d5dbe1"/></g><g><path d="m22.731 22.382c-.369-.369-.368-.964.001-1.333s.964-.369 1.333-.001l.444.444c-.19-.19-.278-.44-.272-.689l-.645-.645c-.368-.369-.964-.368-1.333.001s-.369.964-.001 1.333l-.444-.444c-.19-.19-.44-.278-.689-.272z" fill="#d5dbe1"/></g><g><path d="m24.509 20.16c.369-.369.964-.369 1.333-.001l.888.888c-.188-.188-.277-.435-.273-.681l-.643-.653c-.369-.369-.964-.368-1.333.001-.262.262-.328.635-.219.963.03-.188.101-.372.247-.517z" fill="#d5dbe1"/></g><g><path d="m23.838 28.378c-2.558-1.216-2.994-.327-3.553-.887-.204-.204-.222-.666.445-1.333.707-.707 1.857-.667 2.546-.565l-4.542-4.542c-.19-.19-.278-.44-.272-.689l-.645-.645c-.368-.368-.964-.368-1.333.001s-.369.964-.001 1.333l4.542 4.542c-.689-.102-1.839-.141-2.546.565-.667.667-.649 1.129-.445 1.333.559.559.995-.329 3.553.887 1.796.853 3.134 1.043 4.166.703-.575-.141-1.206-.366-1.915-.703z" fill="#d5dbe1"/></g><g><path d="m15.04 27h-6.29c-1.516 0-2.75-1.233-2.75-2.75v-12.5c0-1.517 1.234-2.75 2.75-2.75h1.88v1.5h-1.88c-.689 0-1.25.561-1.25 1.25v12.5c0 .689.561 1.25 1.25 1.25h6.29z"/></g><g><path d="m23 16.96h-1.5v-5.21c0-.689-.561-1.25-1.25-1.25h-1.87v-1.5h1.87c1.516 0 2.75 1.233 2.75 2.75z"/></g><g><path d="m17.25 12.5h-5.5c-.965 0-1.75-.785-1.75-1.75v-2c0-.414.336-.75.75-.75h1.104c.327-1.153 1.39-2 2.646-2s2.319.847 2.646 2h1.104c.414 0 .75.336.75.75v2c0 .965-.785 1.75-1.75 1.75zm-5.75-3v1.25c0 .138.112.25.25.25h5.5c.138 0 .25-.112.25-.25v-1.25h-1c-.414 0-.75-.336-.75-.75 0-.689-.561-1.25-1.25-1.25s-1.25.561-1.25 1.25c0 .414-.336.75-.75.75z"/></g><g><path d="m9.75 14h9.5v1.5h-9.5z"/></g><g><path d="m9.75 17h4.47v1.5h-4.47z"/></g><g><path d="m9.75 20h3.48v1.5h-3.48z"/></g><g><path d="m21.061 24.022-1.11-1.11c-.32-.319-.496-.744-.496-1.197 0-.451.177-.876.496-1.196.66-.66 1.733-.663 2.394-.001l.445.444-1.062 1.061-.444-.444c-.075-.076-.195-.074-.272.001-.064.063-.065.208-.001.272l1.11 1.11z"/></g><g><path d="m22.838 23.133-1.11-1.11c-.32-.319-.496-.745-.496-1.197 0-.451.177-.876.497-1.196.66-.66 1.734-.66 2.394 0l.888.888-1.061 1.061-.888-.888c-.076-.076-.195-.075-.272 0-.063.064-.065.208-.001.272l1.11 1.11z"/></g><g><path d="m27.945 22.907-2.663-2.663c-.064-.064-.208-.063-.272.001-.063.063-.064.207 0 .271l.667.666-1.062 1.061-.666-.666c-.319-.319-.496-.744-.496-1.196s.176-.877.497-1.197.746-.496 1.196-.496h.001c.452 0 .877.177 1.197.497l2.665 2.664z"/></g><g><path d="m24.737 29.995c-1 0-2.152-.313-3.47-.939-1.371-.65-2.02-.621-2.449-.611-.386.014-.858.032-1.312-.422-.45-.451-.603-1.348.445-2.394.383-.384.846-.607 1.324-.727l-3.321-3.321c-.32-.32-.496-.745-.496-1.197 0-.451.177-.877.497-1.196.659-.657 1.732-.661 2.392 0l2.665 2.664-1.061 1.061-2.664-2.664c-.076-.076-.195-.074-.271.001-.048.048-.058.1-.058.136s.01.089.056.136l4.542 4.542c.229.229.285.578.14.867-.145.29-.46.447-.779.405-.506-.075-1.425-.128-1.906.354-.101.101-.173.186-.224.255.545-.019 1.448-.041 3.124.756 2.795 1.329 3.897.717 4.482.141l.885-.885c1.09-1.09 1.86-2.857.456-4.262l-2.451-2.45c-.064-.064-.208-.063-.272.001-.063.063-.064.207 0 .271l-1.06 1.061c-.32-.319-.497-.744-.497-1.196s.176-.877.497-1.197.746-.496 1.196-.496h.001c.452 0 .877.177 1.197.497l2.441 2.44c1.781 1.781 1.6 4.345-.443 6.388l-.894.893c-.739.726-1.637 1.088-2.712 1.088z"/></g><g><path d="m14.125 0h1v2h-1z" fill="#a4afc1"/></g><g><path d="m10.625 3h2v1h-2z" fill="#a4afc1"/></g><g><path d="m16.375 3h2v1h-2z" fill="#a4afc1"/></g><g><path d="m28.79 17.264c-.827 0-1.5-.673-1.5-1.5s.673-1.5 1.5-1.5 1.5.673 1.5 1.5-.673 1.5-1.5 1.5zm0-2c-.276 0-.5.225-.5.5s.224.5.5.5.5-.225.5-.5-.224-.5-.5-.5z" fill="#a4afc1"/></g></svg>