<svg id="Effect" enable-background="new 0 0 36 36" height="512" viewBox="0 0 36 36" width="512" xmlns="http://www.w3.org/2000/svg"><g><path d="m8.377 4.167c6.917 0 11.667-3.583 15-3.583s10.333 1.916 10.333 17.249-9.417 17.583-13.083 17.583c-17.167.001-24.5-31.249-12.25-31.249z" fill="#efefef"/></g><g><path d="m27.25 8.75v18.5c0 1.105-.895 2-2 2h-14.5c-1.105 0-2-.895-2-2v-18.5c0-1.105.895-2 2-2h14.5c1.105 0 2 .895 2 2z" fill="#2fdf84"/></g><g><path d="m11 27.25v-18.5c0-1.105.895-2 2-2h-2.25c-1.105 0-2 .895-2 2v18.5c0 1.105.895 2 2 2h2.25c-1.105 0-2-.895-2-2z" fill="#00b871"/></g><g><path d="m24.5 26h-1.75c-.965 0-1.75-.785-1.75-1.75v-2.5c0-.965.785-1.75 1.75-1.75h2.5v1.5h-2.5c-.138 0-.25.112-.25.25v2.5c0 .138.112.25.25.25h1v-.5h-1v-1.5h1.75c.414 0 .75.336.75.75v2c0 .414-.336.75-.75.75z"/></g><g><path d="m20 26h-1.5v-2.191c-.27.242-.73.242-1 0v2.191h-1.5v-5.25c0-.348.239-.65.578-.729.336-.08.688.083.843.395l.579 1.157.579-1.158c.155-.312.507-.476.843-.395.339.08.578.382.578.73z"/></g><g><path d="m13.25 26h-1.5c-.414 0-.75-.336-.75-.75v-4.5c0-.414.336-.75.75-.75h1.5c.965 0 1.75.785 1.75 1.75v2.5c0 .965-.785 1.75-1.75 1.75zm-.75-1.5h.75c.138 0 .25-.112.25-.25v-2.5c0-.138-.112-.25-.25-.25h-.75z"/></g><g><path d="m25.25 30h-14.5c-1.517 0-2.75-1.233-2.75-2.75v-18.5c0-1.517 1.233-2.75 2.75-2.75h14.5c1.517 0 2.75 1.233 2.75 2.75v18.5c0 1.517-1.233 2.75-2.75 2.75zm-14.5-22.5c-.689 0-1.25.561-1.25 1.25v18.5c0 .689.561 1.25 1.25 1.25h14.5c.689 0 1.25-.561 1.25-1.25v-18.5c0-.689-.561-1.25-1.25-1.25z"/></g><g><path d="m3.174 28.75c-.827 0-1.5-.673-1.5-1.5s.673-1.5 1.5-1.5 1.5.673 1.5 1.5-.673 1.5-1.5 1.5zm0-2c-.275 0-.5.225-.5.5s.225.5.5.5.5-.225.5-.5-.225-.5-.5-.5z" fill="#a4afc1"/></g><g><path d="m7.783 2.207h2v1h-2z" fill="#a4afc1" transform="matrix(.707 -.707 .707 .707 .658 7.004)"/></g><g><path d="m3.717 6.273h2v1h-2z" fill="#a4afc1" transform="matrix(.707 -.707 .707 .707 -3.408 5.319)"/></g><g><path d="m4.394 1.707h1v2h-1z" fill="#a4afc1" transform="matrix(.707 -.707 .707 .707 -.481 4.253)"/></g></svg>