<svg id="Effect" enable-background="new 0 0 36 36" height="512" viewBox="0 0 36 36" width="512" xmlns="http://www.w3.org/2000/svg"><g><path d="m8.377 4.167c6.917 0 11.667-3.583 15-3.583s10.333 1.916 10.333 17.249-9.417 17.583-13.083 17.583c-17.167.001-24.5-31.249-12.25-31.249z" fill="#efefef"/></g><g><path d="m27.25 8.75v18.5c0 1.105-.895 2-2 2h-14.5c-1.105 0-2-.895-2-2v-18.5c0-1.105.895-2 2-2h14.5c1.105 0 2 .895 2 2z" fill="#2fdf84"/></g><g><path d="m11 27.25v-18.5c0-1.105.895-2 2-2h-2.25c-1.105 0-2 .895-2 2v18.5c0 1.105.895 2 2 2h2.25c-1.105 0-2-.895-2-2z" fill="#00b871"/></g><g><path d="m25 26h-2.25c-.965 0-1.75-.785-1.75-1.75v-2.5c0-.965.785-1.75 1.75-1.75h2.25v1.5h-2.25c-.138 0-.25.112-.25.25v2.5c0 .138.112.25.25.25h2.25z"/></g><g><path d="m18.25 26h-.5c-.965 0-1.75-.785-1.75-1.75v-2.5c0-.965.785-1.75 1.75-1.75h.5c.965 0 1.75.785 1.75 1.75v2.5c0 .965-.785 1.75-1.75 1.75zm-.5-4.5c-.138 0-.25.112-.25.25v2.5c0 .138.112.25.25.25h.5c.138 0 .25-.112.25-.25v-2.5c0-.138-.112-.25-.25-.25z"/></g><g><path d="m13.25 26h-1.5c-.414 0-.75-.336-.75-.75v-4.5c0-.414.336-.75.75-.75h1.5c.965 0 1.75.785 1.75 1.75v2.5c0 .965-.785 1.75-1.75 1.75zm-.75-1.5h.75c.138 0 .25-.112.25-.25v-2.5c0-.138-.112-.25-.25-.25h-.75z"/></g><g><path d="m25.25 30h-14.5c-1.517 0-2.75-1.233-2.75-2.75v-18.5c0-1.517 1.233-2.75 2.75-2.75h14.5c1.517 0 2.75 1.233 2.75 2.75v18.5c0 1.517-1.233 2.75-2.75 2.75zm-14.5-22.5c-.689 0-1.25.561-1.25 1.25v18.5c0 .689.561 1.25 1.25 1.25h14.5c.689 0 1.25-.561 1.25-1.25v-18.5c0-.689-.561-1.25-1.25-1.25z"/></g><g><path d="m9.75 34.21c-.827 0-1.5-.673-1.5-1.5s.673-1.5 1.5-1.5 1.5.673 1.5 1.5-.673 1.5-1.5 1.5zm0-2c-.276 0-.5.224-.5.5s.224.5.5.5.5-.224.5-.5-.224-.5-.5-.5z" fill="#a4afc1"/></g><g><path d="m28.5 3.665h2v1h-2z" fill="#a4afc1"/></g><g><path d="m22.75 3.665h2v1h-2z" fill="#a4afc1"/></g><g><path d="m26.25.415h1v2h-1z" fill="#a4afc1"/></g></svg>