<svg id="Effect" enable-background="new 0 0 36 36" height="512" viewBox="0 0 36 36" width="512" xmlns="http://www.w3.org/2000/svg"><g><path d="m4.167 8.377c0 6.917-3.583 11.667-3.583 15s1.916 10.333 17.249 10.333 17.583-9.417 17.583-13.083c.001-17.167-31.249-24.5-31.249-12.25z" fill="#efefef"/></g><g><path d="m20.25 6.75h-6.469-5.031c-1.105 0-2 .895-2 2v8.961 5.539c0 1.105.895 2 2 2h6.469 5.031c1.105 0 2-.895 2-2v-8.961-5.539c0-1.105-.895-2-2-2z" fill="#f3f3f1"/></g><g><path d="m27 20.75c0-1.836-1.65-3.287-3.548-2.951-1.202.213-2.186 1.198-2.402 2.399-.184 1.025.156 1.967.793 2.623.392.403.657.911.657 1.474v1.456h3v-1.542c0-.514.245-.98.611-1.341.548-.542.889-1.287.889-2.118z" fill="#2fdf84"/></g><g><path d="m29.25 29.25h-10.5v-1.867c0-.504.376-.93.876-.992l3.124-.391h2.5l3.124.391c.5.063.876.488.876.992z" fill="#2fdf84"/></g><g><path d="m9 23.25v-5.539-8.961c0-1.105.895-2 2-2h-2.25c-1.105 0-2 .895-2 2v8.961 5.539c0 1.105.895 2 2 2h2.25c-1.105 0-2-.895-2-2z" fill="#d5dbe1"/></g><g><path d="m24.093 22.82c-.637-.656-.977-1.598-.793-2.623.179-.995.889-1.835 1.809-2.217-.502-.202-1.063-.287-1.657-.182-1.202.213-2.186 1.198-2.402 2.399-.184 1.025.156 1.967.793 2.623.392.403.657.911.657 1.474v1.456h2.25v-1.456c0-.562-.266-1.07-.657-1.474z" fill="#00b871"/></g><g><path d="m21.876 26.391 3.124-.391h-2.25l-3.124.391c-.5.063-.876.488-.876.992v1.867h2.25v-1.867c0-.505.376-.93.876-.992z" fill="#00b871"/></g><g><path d="m25.5 26.5h-3c-.414 0-.75-.336-.75-.75v-1.456c0-.407-.242-.742-.445-.951-.848-.875-1.21-2.069-.993-3.278.27-1.503 1.508-2.738 3.01-3.004 1.108-.199 2.235.101 3.087.816.853.715 1.341 1.762 1.341 2.874 0 1.002-.395 1.943-1.112 2.65-.177.175-.388.457-.388.808v1.542c0 .413-.336.749-.75.749zm-2.25-1.5h1.5v-.792c0-.678.296-1.344.834-1.875.429-.423.666-.986.666-1.583 0-.667-.293-1.296-.805-1.725-.519-.435-1.178-.612-1.862-.488-.895.158-1.633.896-1.794 1.793-.131.728.085 1.445.593 1.968.568.585.869 1.276.869 1.996v.706z"/></g><g><path d="m29.25 30h-10.5c-.414 0-.75-.336-.75-.75v-1.867c0-.881.659-1.627 1.533-1.736l3.124-.391 2.593-.006 3.217.396c.874.109 1.533.856 1.533 1.737v1.867c0 .414-.336.75-.75.75zm-9.75-1.5h9v-1.117c0-.126-.094-.232-.219-.248l-3.125-.391-2.406.006-3.031.385c-.125.016-.219.122-.219.248z"/></g><g><path d="m15.219 26h-6.469c-1.517 0-2.75-1.233-2.75-2.75v-14.5c0-1.517 1.233-2.75 2.75-2.75h11.5c1.517 0 2.75 1.233 2.75 2.75v5.54h-1.5v-5.54c0-.689-.561-1.25-1.25-1.25h-11.5c-.689 0-1.25.561-1.25 1.25v14.5c0 .689.561 1.25 1.25 1.25h6.469z"/></g><g><path d="m10.75 17.5h7.5v1.5h-7.5z"/></g><g><path d="m10.75 21.5h6.5v1.5h-6.5z"/></g><g><path d="m10.75 13.5h7.5v1.5h-7.5z"/></g><g><path d="m10.75 9.5h7.5v1.5h-7.5z"/></g><g><path d="m31.98 25.75c-.827 0-1.5-.673-1.5-1.5s.673-1.5 1.5-1.5 1.5.673 1.5 1.5-.673 1.5-1.5 1.5zm0-2c-.276 0-.5.224-.5.5s.224.5.5.5.5-.224.5-.5-.224-.5-.5-.5z" fill="#a4afc1"/></g><g><path d="m7 3.467h2v1h-2z" fill="#a4afc1" transform="matrix(.707 -.707 .707 .707 -.462 6.819)"/></g><g><path d="m2.934 7.533h2v1h-2z" fill="#a4afc1" transform="matrix(.707 -.707 .707 .707 -4.528 5.135)"/></g><g><path d="m3.611 2.967h1v2h-1z" fill="#a4afc1" transform="matrix(.707 -.707 .707 .707 -1.601 4.068)"/></g></svg>