<svg id="Effect" enable-background="new 0 0 36 36" height="512" viewBox="0 0 36 36" width="512" xmlns="http://www.w3.org/2000/svg"><g><path d="m27.623 4.167c-6.917 0-11.667-3.583-15-3.583s-10.333 1.916-10.333 17.249 9.417 17.583 13.083 17.583c17.167.001 24.5-31.249 12.25-31.249z" fill="#efefef"/></g><g><path d="m23.25 6.75h-6.66-7.84c-1.1 0-2 .9-2 2v5.92 12.58c0 1.1.9 2 2 2h6.66 7.84c1.1 0 2-.9 2-2v-5.92-12.58c0-1.1-.9-2-2-2z" fill="#f3f3f1"/></g><g><circle cx="23.5" cy="12.5" fill="#2fdf84" r="5.75"/></g><g><path d="m9 27.25v-12.58-5.92c0-1.1.9-2 2-2h-2.25c-1.1 0-2 .9-2 2v5.92 12.58c0 1.1.9 2 2 2h2.25c-1.1 0-2-.9-2-2z" fill="#d5dbe1"/></g><g><path d="m20 12.5c0-2.79 1.988-5.115 4.625-5.638-.364-.073-.74-.112-1.125-.112-3.176 0-5.75 2.574-5.75 5.75s2.574 5.75 5.75 5.75c.385 0 .761-.039 1.125-.112-2.637-.523-4.625-2.848-4.625-5.638z" fill="#00b871"/></g><g><path d="m23.25 30h-14.5c-1.517 0-2.75-1.233-2.75-2.75v-18.5c0-1.517 1.233-2.75 2.75-2.75h7.84v1.5h-7.84c-.689 0-1.25.561-1.25 1.25v18.5c0 .689.561 1.25 1.25 1.25h14.5c.689 0 1.25-.561 1.25-1.25v-5.92h1.5v5.92c0 1.517-1.233 2.75-2.75 2.75z"/></g><g><path d="m23.5 19c-3.584 0-6.5-2.916-6.5-6.5s2.916-6.5 6.5-6.5 6.5 2.916 6.5 6.5-2.916 6.5-6.5 6.5zm0-11.5c-2.757 0-5 2.243-5 5s2.243 5 5 5 5-2.243 5-5-2.243-5-5-5z"/></g><g><path d="m17.76 11.75h11.479v1.5h-11.479z" transform="matrix(.707 -.707 .707 .707 -1.956 20.278)"/></g><g><path d="m14 23.25h4v1.5h-4z"/></g><g><path d="m18 27h-2.25c-.965 0-1.75-.785-1.75-1.75v-2.5c0-.965.785-1.75 1.75-1.75h2.25v1.5h-2.25c-.138 0-.25.112-.25.25v2.5c0 .138.112.25.25.25h2.25z"/></g><g><path d="m9 21h1.5v6h-1.5z"/></g><g><path d="m12 27.311-2.78-2.78c-.293-.293-.293-.768 0-1.061l2.78-2.78 1.061 1.061-2.25 2.249 2.25 2.25z"/></g><g><path d="m21 24.75c-.272 0-.523-.147-.656-.386l-1.614-2.906 1.312-.729.958 1.727.958-1.726 1.312.729-1.614 2.906c-.133.238-.384.385-.656.385z"/></g><g><path d="m20.25 23.25h1.5v3.75h-1.5z"/></g><g><path d="m10.484 0h1v2h-1z" fill="#a4afc1"/></g><g><path d="m6.984 3h2v1h-2z" fill="#a4afc1"/></g><g><path d="m12.734 3h2v1h-2z" fill="#a4afc1"/></g><g><path d="m29.98 27.75c-.827 0-1.5-.673-1.5-1.5s.673-1.5 1.5-1.5 1.5.673 1.5 1.5-.673 1.5-1.5 1.5zm0-2c-.276 0-.5.224-.5.5s.224.5.5.5.5-.224.5-.5-.224-.5-.5-.5z" fill="#a4afc1"/></g></svg>