<svg id="Effect" enable-background="new 0 0 36 36" height="512" viewBox="0 0 36 36" width="512" xmlns="http://www.w3.org/2000/svg"><g><path d="m27.623 31.833c-6.917 0-11.667 3.583-15 3.583s-10.333-1.916-10.333-17.249 9.417-17.584 13.083-17.584c17.167 0 24.5 31.25 12.25 31.25z" fill="#efefef"/></g><g><path d="m23.25 6.75h-6.66-7.84c-1.1 0-2 .9-2 2v5.92 12.58c0 1.1.9 2 2 2h6.66 7.84c1.1 0 2-.9 2-2v-5.92-12.58c0-1.1-.9-2-2-2z" fill="#f3f3f1"/></g><g><circle cx="23" cy="11" fill="#2fdf84" r="4.25"/></g><g><path d="m9 27.25v-12.58-5.92c0-1.1.9-2 2-2h-2.25c-1.1 0-2 .9-2 2v5.92 12.58c0 1.1.9 2 2 2h2.25c-1.1 0-2-.9-2-2z" fill="#d5dbe1"/></g><g><path d="m21 11c0-1.955 1.328-3.585 3.125-4.08-.361-.1-.733-.17-1.125-.17-2.347 0-4.25 1.903-4.25 4.25s1.903 4.25 4.25 4.25c.392 0 .764-.07 1.125-.17-1.797-.495-3.125-2.125-3.125-4.08z" fill="#00b871"/></g><g><path d="m26.875 13.327h1.5v4.596h-1.5z" transform="matrix(.707 -.707 .707 .707 -2.957 24.11)"/></g><g><path d="m23.25 30h-14.5c-1.517 0-2.75-1.233-2.75-2.75v-18.5c0-1.517 1.233-2.75 2.75-2.75h8.04v1.5h-8.04c-.689 0-1.25.561-1.25 1.25v18.5c0 .689.561 1.25 1.25 1.25h14.5c.689 0 1.25-.561 1.25-1.25v-9.16h1.5v9.16c0 1.517-1.233 2.75-2.75 2.75z"/></g><g><path d="m23 16c-2.757 0-5-2.243-5-5s2.243-5 5-5 5 2.243 5 5-2.243 5-5 5zm0-8.5c-1.93 0-3.5 1.57-3.5 3.5s1.57 3.5 3.5 3.5 3.5-1.57 3.5-3.5-1.57-3.5-3.5-3.5z"/></g><g><path d="m14 23.25h4v1.5h-4z"/></g><g><path d="m18 27h-2.25c-.965 0-1.75-.785-1.75-1.75v-2.5c0-.965.785-1.75 1.75-1.75h2.25v1.5h-2.25c-.138 0-.25.112-.25.25v2.5c0 .138.112.25.25.25h2.25z"/></g><g><path d="m9 21h1.5v6h-1.5z"/></g><g><path d="m12 27.311-2.78-2.78c-.293-.293-.293-.768 0-1.061l2.78-2.78 1.061 1.061-2.25 2.249 2.25 2.25z"/></g><g><path d="m21 24.75c-.272 0-.523-.147-.656-.386l-1.614-2.905 1.312-.729.958 1.726.958-1.726 1.312.729-1.614 2.905c-.133.239-.384.386-.656.386z"/></g><g><path d="m20.25 23.25h1.5v3.75h-1.5z"/></g><g><path d="m2.29 10.283c-.827 0-1.5-.673-1.5-1.5s.673-1.5 1.5-1.5 1.5.673 1.5 1.5-.673 1.5-1.5 1.5zm0-2c-.276 0-.5.224-.5.5s.224.5.5.5.5-.224.5-.5-.224-.5-.5-.5z" fill="#a4afc1"/></g><g><path d="m32.013 7.783h1v2h-1z" fill="#a4afc1" transform="matrix(.707 -.707 .707 .707 3.312 25.563)"/></g><g><path d="m27.947 3.717h1v2h-1z" fill="#a4afc1" transform="matrix(.707 -.707 .707 .707 4.994 21.493)"/></g><g><path d="m31.513 4.394h2v1h-2z" fill="#a4afc1" transform="matrix(.707 -.707 .707 .707 6.062 24.424)"/></g></svg>