<svg id="Effect" enable-background="new 0 0 36 36" height="512" viewBox="0 0 36 36" width="512" xmlns="http://www.w3.org/2000/svg"><g><path d="m8.377 31.833c6.917 0 11.667 3.583 15 3.583s10.333-1.916 10.333-17.249-9.417-17.584-13.083-17.584c-17.167 0-24.5 31.25-12.25 31.25z" fill="#efefef"/></g><g><path d="m23.25 6.75h-6.66-7.84c-1.1 0-2 .9-2 2v5.92 12.58c0 1.1.9 2 2 2h6.66 7.84c1.1 0 2-.9 2-2v-5.92-12.58c0-1.1-.9-2-2-2z" fill="#f3f3f1"/></g><g><circle cx="23.5" cy="12.5" fill="#2fdf84" r="5.75"/></g><g><path d="m9 27.25v-12.58-5.92c0-1.1.9-2 2-2h-2.25c-1.1 0-2 .9-2 2v5.92 12.58c0 1.1.9 2 2 2h2.25c-1.1 0-2-.9-2-2z" fill="#d5dbe1"/></g><g><path d="m20 12.5c0-2.79 1.988-5.115 4.625-5.638-.364-.073-.74-.112-1.125-.112-3.176 0-5.75 2.574-5.75 5.75s2.574 5.75 5.75 5.75c.385 0 .761-.039 1.125-.112-2.637-.523-4.625-2.848-4.625-5.638z" fill="#00b871"/></g><g><path d="m23.25 30h-14.5c-1.517 0-2.75-1.233-2.75-2.75v-18.5c0-1.517 1.233-2.75 2.75-2.75h7.84v1.5h-7.84c-.689 0-1.25.561-1.25 1.25v18.5c0 .689.561 1.25 1.25 1.25h14.5c.689 0 1.25-.561 1.25-1.25v-5.92h1.5v5.92c0 1.517-1.233 2.75-2.75 2.75z"/></g><g><path d="m10.5 27h-1.5v-5.25c0-.414.336-.75.75-.75h1.25c1.103 0 2 .897 2 2s-.897 2-2 2h-.5zm0-3.5h.5c.276 0 .5-.224.5-.5s-.224-.5-.5-.5h-.5z"/></g><g><path d="m16.25 27h-1.5c-.414 0-.75-.336-.75-.75v-4.5c0-.414.336-.75.75-.75h1.5c.965 0 1.75.785 1.75 1.75v2.5c0 .965-.785 1.75-1.75 1.75zm-.75-1.5h.75c.138 0 .25-.112.25-.25v-2.5c0-.138-.112-.25-.25-.25h-.75z"/></g><g><path d="m20.5 27h-1.5v-4.25c0-.965.785-1.75 1.75-1.75h2.25v1.5h-2.25c-.138 0-.25.112-.25.25z"/></g><g><path d="m19 23.5h4v1.5h-4z"/></g><g><path d="m23.5 19c-3.584 0-6.5-2.916-6.5-6.5s2.916-6.5 6.5-6.5 6.5 2.916 6.5 6.5-2.916 6.5-6.5 6.5zm0-11.5c-2.757 0-5 2.243-5 5s2.243 5 5 5 5-2.243 5-5-2.243-5-5-5z"/></g><g><path d="m20.75 11.75h5.5v1.5h-5.5z"/></g><g><path d="m18 3.75c-.827 0-1.5-.673-1.5-1.5s.673-1.5 1.5-1.5 1.5.673 1.5 1.5-.673 1.5-1.5 1.5zm0-2c-.276 0-.5.224-.5.5s.224.5.5.5.5-.224.5-.5-.224-.5-.5-.5z" fill="#a4afc1"/></g><g><path d="m27.967 19.783h2v1h-2z" fill="#a4afc1" transform="matrix(.707 -.707 .707 .707 -5.858 26.424)"/></g><g><path d="m32.033 15.717h2v1h-2z" fill="#a4afc1" transform="matrix(.707 -.707 .707 .707 -1.792 28.108)"/></g><g><path d="m32.356 19.283h1v2h-1z" fill="#a4afc1" transform="matrix(.707 -.707 .707 .707 -4.719 29.174)"/></g></svg>