<svg id="Effect" enable-background="new 0 0 36 36" height="512" viewBox="0 0 36 36" width="512" xmlns="http://www.w3.org/2000/svg"><g><path d="m27.623 4.167c-6.917 0-11.667-3.583-15-3.583s-10.333 1.916-10.333 17.249 9.417 17.583 13.083 17.583c17.167.001 24.5-31.249 12.25-31.249z" fill="#efefef"/></g><g><path d="m23.25 6.75h-6.66-7.84c-1.1 0-2 .9-2 2v5.92 12.58c0 1.1.9 2 2 2h6.66 7.84c1.1 0 2-.9 2-2v-5.92-12.58c0-1.1-.9-2-2-2z" fill="#f3f3f1"/></g><g><path d="m28.25 16.25h-5.5c-.552 0-1-.448-1-1v-3.5c0-.552.448-1 1-1h5.5c.552 0 1 .448 1 1v3.5c0 .552-.448 1-1 1z" fill="#2fdf84"/></g><g><path d="m9 27.25v-12.58-5.92c0-1.1.9-2 2-2h-2.25c-1.1 0-2 .9-2 2v5.92 12.58c0 1.1.9 2 2 2h2.25c-1.1 0-2-.9-2-2z" fill="#d5dbe1"/></g><g><path d="m24 15.25v-3.5c0-.552.448-1 1-1h-2.25c-.552 0-1 .448-1 1v3.5c0 .552.448 1 1 1h2.25c-.552 0-1-.448-1-1z" fill="#00b871"/></g><g><path d="m23.25 30h-14.5c-1.517 0-2.75-1.233-2.75-2.75v-18.5c0-1.517 1.233-2.75 2.75-2.75h12.09v1.5h-12.09c-.689 0-1.25.561-1.25 1.25v18.5c0 .689.561 1.25 1.25 1.25h14.5c.689 0 1.25-.561 1.25-1.25v-7.75h1.5v7.75c0 1.517-1.233 2.75-2.75 2.75z"/></g><g><path d="m28.25 17h-5.5c-.965 0-1.75-.785-1.75-1.75v-3.5c0-.965.785-1.75 1.75-1.75h5.5c.965 0 1.75.785 1.75 1.75v3.5c0 .965-.785 1.75-1.75 1.75zm-5.5-5.5c-.138 0-.25.112-.25.25v3.5c0 .138.112.25.25.25h5.5c.138 0 .25-.112.25-.25v-3.5c0-.138-.112-.25-.25-.25z"/></g><g><path d="m27.25 11.5h-3.5c-.414 0-.75-.336-.75-.75v-2.25c0-1.379 1.121-2.5 2.5-2.5s2.5 1.121 2.5 2.5v2.25c0 .414-.336.75-.75.75zm-2.75-1.5h2v-1.5c0-.552-.448-1-1-1s-1 .448-1 1z"/></g><g><path d="m15.5 27h-1.5v-5.25c0-.414.336-.75.75-.75h1.25c1.103 0 2 .897 2 2s-.897 2-2 2h-.5zm0-3.5h.5c.275 0 .5-.225.5-.5s-.225-.5-.5-.5h-.5z"/></g><g><path d="m10.5 27h-1.5v-5.25c0-.414.336-.75.75-.75h1.25c1.103 0 2 .897 2 2s-.897 2-2 2h-.5zm0-3.5h.5c.275 0 .5-.225.5-.5s-.225-.5-.5-.5h-.5z"/></g><g><path d="m21.208 27h-2.208v-1.5h2.208c.158 0 .292-.172.292-.375s-.134-.375-.292-.375h-.416c-.988 0-1.792-.841-1.792-1.875s.804-1.875 1.792-1.875h2.208v1.5h-2.208c-.158 0-.292.172-.292.375s.134.375.292.375h.416c.988 0 1.792.841 1.792 1.875s-.804 1.875-1.792 1.875z"/></g><g><path d="m31 23.25c-.827 0-1.5-.673-1.5-1.5s.673-1.5 1.5-1.5 1.5.673 1.5 1.5-.673 1.5-1.5 1.5zm0-2c-.275 0-.5.225-.5.5s.225.5.5.5.5-.225.5-.5-.225-.5-.5-.5z" fill="#a4afc1"/></g><g><path d="m6.046 2.514h2v1h-2z" fill="#a4afc1" transform="matrix(.707 -.707 .707 .707 -.067 5.865)"/></g><g><path d="m1.981 6.579h2v1h-2z" fill="#a4afc1" transform="matrix(.707 -.707 .707 .707 -4.133 4.181)"/></g><g><path d="m2.657 2.014h1v2h-1z" fill="#a4afc1" transform="matrix(.707 -.707 .707 .707 -1.206 3.115)"/></g></svg>