<svg id="Effect" enable-background="new 0 0 36 36" height="512" viewBox="0 0 36 36" width="512" xmlns="http://www.w3.org/2000/svg"><g><path d="m8.377 4.167c6.917 0 11.667-3.583 15-3.583s10.333 1.916 10.333 17.249-9.417 17.583-13.083 17.583c-17.167.001-24.5-31.249-12.25-31.249z" fill="#efefef"/></g><g><path d="m23.25 6.75h-6.66-7.84c-1.1 0-2 .9-2 2v5.92 12.58c0 1.1.9 2 2 2h6.66 7.84c1.1 0 2-.9 2-2v-5.92-12.58c0-1.1-.9-2-2-2z" fill="#f3f3f1"/></g><g><path d="m20 14.25c-1.245 0-2.25-1.005-2.25-2.25s1.005-2.25 2.25-2.25h.04c.24-1.7 1.695-3 3.46-3 1.4 0 2.61.82 3.165 2.01 1.445.08 2.585 1.275 2.585 2.74 0 1.52-1.23 2.75-2.75 2.75z" fill="#2fdf84"/></g><g><path d="m9 27.25v-12.58-5.92c0-1.1.9-2 2-2h-2.25c-1.1 0-2 .9-2 2v5.92 12.58c0 1.1.9 2 2 2h2.25c-1.1 0-2-.9-2-2z" fill="#d5dbe1"/></g><g><path d="m20 12c0-1.245 1.005-2.25 2.25-2.25h.04c.186-1.321 1.11-2.391 2.339-2.807-.355-.121-.733-.193-1.129-.193-1.765 0-3.22 1.3-3.46 3h-.04c-1.245 0-2.25 1.005-2.25 2.25s1.005 2.25 2.25 2.25h2.25c-1.245 0-2.25-1.005-2.25-2.25z" fill="#00b871"/></g><g><path d="m23.25 30h-14.5c-1.517 0-2.75-1.233-2.75-2.75v-18.5c0-1.517 1.233-2.75 2.75-2.75h9.07v1.5h-9.07c-.689 0-1.25.561-1.25 1.25v18.5c0 .689.561 1.25 1.25 1.25h14.5c.689 0 1.25-.561 1.25-1.25v-9.75h1.5v9.75c0 1.517-1.233 2.75-2.75 2.75z"/></g><g><path d="m26.5 15h-6.5c-1.654 0-3-1.346-3-3 0-1.457 1.045-2.676 2.425-2.944.519-1.779 2.177-3.056 4.075-3.056 1.499 0 2.886.797 3.643 2.062 1.633.299 2.857 1.733 2.857 3.438 0 1.93-1.57 3.5-3.5 3.5zm-3-7.5c-1.359 0-2.527 1.013-2.718 2.354-.052.37-.368.646-.742.646-.867 0-1.54.673-1.54 1.5s.673 1.5 1.5 1.5h6.5c1.103 0 2-.897 2-2 0-1.059-.824-1.933-1.876-1.991-.276-.016-.521-.182-.639-.432-.446-.958-1.422-1.577-2.485-1.577z"/></g><g><path d="m18 27h-3.25c-.414 0-.75-.336-.75-.75v-5.25h1.5v4.5h2.5z"/></g><g><path d="m10.25 20.676h1.499v6.647h-1.499z" transform="matrix(.874 -.486 .486 .874 -10.272 8.364)"/></g><g><path d="m7.676 23.25h6.647v1.499h-6.647z" transform="matrix(.486 -.874 .874 .486 -15.321 21.954)"/></g><g><path d="m21.208 27h-2.208v-1.5h2.208c.158 0 .292-.172.292-.375s-.134-.375-.292-.375h-.416c-.988 0-1.792-.841-1.792-1.875s.804-1.875 1.792-1.875h2.208v1.5h-2.208c-.158 0-.292.172-.292.375s.134.375.292.375h.416c.988 0 1.792.841 1.792 1.875s-.804 1.875-1.792 1.875z"/></g><g><path d="m2.937 1.997h1v2h-1z" fill="#a4afc1" transform="matrix(.707 -.707 .707 .707 -1.113 3.308)"/></g><g><path d="m2.26 6.563h2v1h-2z" fill="#a4afc1" transform="matrix(.707 -.707 .707 .707 -4.039 4.374)"/></g><g><path d="m6.326 2.497h2v1h-2z" fill="#a4afc1" transform="matrix(.707 -.707 .707 .707 .027 6.058)"/></g><g><path d="m30.5 24.25c-.827 0-1.5-.673-1.5-1.5s.673-1.5 1.5-1.5 1.5.673 1.5 1.5-.673 1.5-1.5 1.5zm0-2c-.275 0-.5.225-.5.5s.225.5.5.5.5-.225.5-.5-.225-.5-.5-.5z" fill="#a4afc1"/></g></svg>