<svg id="Effect" enable-background="new 0 0 36 36" height="512" viewBox="0 0 36 36" width="512" xmlns="http://www.w3.org/2000/svg"><g><path d="m4.167 8.377c0 6.917-3.583 11.667-3.583 15s1.916 10.333 17.249 10.333 17.583-9.417 17.583-13.083c.001-17.167-31.249-24.5-31.249-12.25z" fill="#efefef"/></g><g><path d="m23.25 6.75h-6.66-7.84c-1.1 0-2 .9-2 2v5.92 12.58c0 1.1.9 2 2 2h6.66 7.84c1.1 0 2-.9 2-2v-5.92-12.58c0-1.1-.9-2-2-2z" fill="#f3f3f1"/></g><g><path d="m28.25 16.25h-5.5c-.552 0-1-.448-1-1v-3.5c0-.552.448-1 1-1h5.5c.552 0 1 .448 1 1v3.5c0 .552-.448 1-1 1z" fill="#2fdf84"/></g><g><path d="m9 27.25v-12.58-5.92c0-1.1.9-2 2-2h-2.25c-1.1 0-2 .9-2 2v5.92 12.58c0 1.1.9 2 2 2h2.25c-1.1 0-2-.9-2-2z" fill="#d5dbe1"/></g><g><path d="m24 15.25v-3.5c0-.552.448-1 1-1h-2.25c-.552 0-1 .448-1 1v3.5c0 .552.448 1 1 1h2.25c-.552 0-1-.448-1-1z" fill="#00b871"/></g><g><path d="m23.25 30h-14.5c-1.517 0-2.75-1.233-2.75-2.75v-18.5c0-1.517 1.233-2.75 2.75-2.75h12.09v1.5h-12.09c-.689 0-1.25.561-1.25 1.25v18.5c0 .689.561 1.25 1.25 1.25h14.5c.689 0 1.25-.561 1.25-1.25v-7.75h1.5v7.75c0 1.517-1.233 2.75-2.75 2.75z"/></g><g><path d="m28.25 17h-5.5c-.965 0-1.75-.785-1.75-1.75v-3.5c0-.965.785-1.75 1.75-1.75h5.5c.965 0 1.75.785 1.75 1.75v3.5c0 .965-.785 1.75-1.75 1.75zm-5.5-5.5c-.138 0-.25.112-.25.25v3.5c0 .138.112.25.25.25h5.5c.138 0 .25-.112.25-.25v-3.5c0-.138-.112-.25-.25-.25z"/></g><g><path d="m27.25 11.5h-3.5c-.414 0-.75-.336-.75-.75v-2.25c0-1.379 1.121-2.5 2.5-2.5s2.5 1.121 2.5 2.5v2.25c0 .414-.336.75-.75.75zm-2.75-1.5h2v-1.5c0-.552-.448-1-1-1s-1 .448-1 1z"/></g><g><path d="m14.75 21h1.5v6h-1.5z"/></g><g><path d="m13 27h-3.25c-.266 0-.512-.141-.646-.37-.135-.229-.139-.512-.009-.744l1.881-3.386h-1.976v-1.5h3.25c.266 0 .512.141.646.37.135.229.139.512.009.744l-1.881 3.386h1.976z"/></g><g><path d="m19.5 27h-1.5v-5.25c0-.414.336-.75.75-.75h1.25c1.103 0 2 .897 2 2s-.897 2-2 2h-.5zm0-3.5h.5c.275 0 .5-.225.5-.5s-.225-.5-.5-.5h-.5z"/></g><g><path d="m2.29 10.283c-.827 0-1.5-.673-1.5-1.5s.673-1.5 1.5-1.5 1.5.673 1.5 1.5-.673 1.5-1.5 1.5zm0-2c-.275 0-.5.225-.5.5s.225.5.5.5.5-.225.5-.5-.225-.5-.5-.5z" fill="#a4afc1"/></g><g><path d="m32.013 7.783h1v2h-1z" fill="#a4afc1" transform="matrix(.707 -.707 .707 .707 3.312 25.563)"/></g><g><path d="m27.947 3.717h1v2h-1z" fill="#a4afc1" transform="matrix(.707 -.707 .707 .707 4.997 21.497)"/></g><g><path d="m31.513 4.394h2v1h-2z" fill="#a4afc1" transform="matrix(.707 -.707 .707 .707 6.063 24.423)"/></g></svg>