<svg id="Effect" enable-background="new 0 0 36 36" height="512" viewBox="0 0 36 36" width="512" xmlns="http://www.w3.org/2000/svg"><g><path d="m27.623 31.833c-6.917 0-11.667 3.583-15 3.583s-10.333-1.916-10.333-17.249 9.417-17.584 13.083-17.584c17.167 0 24.5 31.25 12.25 31.25z" fill="#efefef"/></g><g><path d="m27.25 8.75v18.5c0 1.105-.895 2-2 2h-14.5c-1.105 0-2-.895-2-2v-18.5c0-1.105.895-2 2-2h14.5c1.105 0 2 .895 2 2z" fill="#2fdf84"/></g><g><path d="m11 27.25v-18.5c0-1.105.895-2 2-2h-2.25c-1.105 0-2 .895-2 2v18.5c0 1.105.895 2 2 2h2.25c-1.105 0-2-.895-2-2z" fill="#00b871"/></g><g><path d="m16 22.25h4v1.5h-4z"/></g><g><path d="m20 26h-2.25c-.965 0-1.75-.785-1.75-1.75v-2.5c0-.965.785-1.75 1.75-1.75h2.25v1.5h-2.25c-.138 0-.25.112-.25.25v2.5c0 .138.112.25.25.25h2.25z"/></g><g><path d="m11 20h1.5v6h-1.5z"/></g><g><path d="m14 26.311-2.78-2.78c-.293-.293-.293-.768 0-1.061l2.78-2.78 1.061 1.061-2.25 2.249 2.25 2.25z"/></g><g><path d="m23 23.75c-.272 0-.523-.147-.656-.386l-1.614-2.906 1.312-.729.958 1.727.958-1.726 1.312.729-1.614 2.906c-.133.238-.384.385-.656.385z"/></g><g><path d="m22.25 22.25h1.5v3.75h-1.5z"/></g><g><path d="m25.25 30h-14.5c-1.517 0-2.75-1.233-2.75-2.75v-18.5c0-1.517 1.233-2.75 2.75-2.75h14.5c1.517 0 2.75 1.233 2.75 2.75v18.5c0 1.517-1.233 2.75-2.75 2.75zm-14.5-22.5c-.689 0-1.25.561-1.25 1.25v18.5c0 .689.561 1.25 1.25 1.25h14.5c.689 0 1.25-.561 1.25-1.25v-18.5c0-.689-.561-1.25-1.25-1.25z"/></g><g><path d="m6.537 33.213c-.827 0-1.5-.673-1.5-1.5s.673-1.5 1.5-1.5 1.5.673 1.5 1.5-.673 1.5-1.5 1.5zm0-2c-.276 0-.5.224-.5.5s.224.5.5.5.5-.224.5-.5-.224-.5-.5-.5z" fill="#a4afc1"/></g><g><path d="m29.98 6.77h1v2h-1z" fill="#a4afc1" transform="matrix(.707 -.707 .707 .707 3.433 23.828)"/></g><g><path d="m25.914 2.704h1v2h-1z" fill="#a4afc1" transform="matrix(.707 -.707 .707 .707 5.117 19.763)"/></g><g><path d="m29.48 3.381h2v1h-2z" fill="#a4afc1" transform="matrix(.707 -.707 .707 .707 6.183 22.689)"/></g></svg>