<svg id="Effect" enable-background="new 0 0 36 36" height="512" viewBox="0 0 36 36" width="512" xmlns="http://www.w3.org/2000/svg"><g><path d="m31.833 27.623c0-6.917 3.583-11.667 3.583-15s-1.916-10.333-17.249-10.333-17.584 9.417-17.584 13.083c0 17.167 31.25 24.5 31.25 12.25z" fill="#efefef"/></g><g><path d="m27.25 26.25h-18.5c-1.105 0-2-.895-2-2v-12.5c0-1.105.895-2 2-2h5.25l2 2h11.25c1.105 0 2 .895 2 2v10.5c0 1.105-.895 2-2 2z" fill="#2fdf84"/></g><g><path d="m9 24.25v-12.5c0-1.105.895-2 2-2h-2.25c-1.105 0-2 .895-2 2v12.5c0 1.105.895 2 2 2h2.25c-1.105 0-2-.895-2-2z" fill="#00b871"/></g><g><path d="m20 21.25h-1.5v-3.25c0-.275-.225-.5-.5-.5s-.5.225-.5.5v3.25h-1.5v-3.25c0-1.103.897-2 2-2s2 .897 2 2z"/></g><g><path d="m16.75 18.5h2.5v1.5h-2.5z"/></g><g><path d="m12.5 21.25h-1.5v-4.5c0-.414.336-.75.75-.75h1.5c.965 0 1.75.785 1.75 1.75v.5c0 .965-.785 1.75-1.75 1.75h-.75zm0-2.75h.75c.138 0 .25-.112.25-.25v-.5c0-.138-.112-.25-.25-.25h-.75z"/></g><g><path d="m12.75 19h1.5v2.5h-1.5z" transform="matrix(.8 -.6 .6 .8 -9.45 12.15)"/></g><g><path d="m22.5 21.25h-1.5v-4.5c0-.414.336-.75.75-.75h1.5c.965 0 1.75.785 1.75 1.75v.5c0 .965-.785 1.75-1.75 1.75h-.75zm0-2.75h.75c.138 0 .25-.112.25-.25v-.5c0-.138-.112-.25-.25-.25h-.75z"/></g><g><path d="m22.75 19h1.5v2.5h-1.5z" transform="matrix(.8 -.6 .6 .8 -7.45 18.15)"/></g><g><path d="m27.25 27h-18.5c-1.517 0-2.75-1.233-2.75-2.75v-12.5c0-1.517 1.233-2.75 2.75-2.75h5.25c.199 0 .39.079.53.22l1.78 1.78h10.94c1.517 0 2.75 1.233 2.75 2.75v10.5c0 1.517-1.233 2.75-2.75 2.75zm-18.5-16.5c-.689 0-1.25.561-1.25 1.25v12.5c0 .689.561 1.25 1.25 1.25h18.5c.689 0 1.25-.561 1.25-1.25v-10.5c0-.689-.561-1.25-1.25-1.25h-11.25c-.199 0-.39-.079-.53-.22l-1.78-1.78z"/></g><g><path d="m3.151 7.927c-.223 0-.448-.049-.661-.154h-.001c-.741-.368-1.046-1.269-.68-2.009.367-.741 1.271-1.048 2.009-.682.741.365 1.047 1.267.682 2.009-.262.529-.795.836-1.349.836zm-.218-1.051c.248.122.549.02.67-.227.122-.248.02-.549-.227-.671-.248-.123-.55-.021-.671.228-.122.247-.019.548.228.67z" fill="#a4afc1"/></g><g><path d="m27.967 30.023h2v1h-2z" fill="#a4afc1" transform="matrix(.707 -.707 .707 .707 -13.099 29.423)"/></g><g><path d="m32.033 25.957h2v1h-2z" fill="#a4afc1" transform="matrix(.707 -.707 .707 .707 -9.033 31.107)"/></g><g><path d="m32.356 29.523h1v2h-1z" fill="#a4afc1" transform="matrix(.707 -.707 .707 .707 -11.96 32.158)"/></g></svg>