<svg id="Effect" enable-background="new 0 0 36 36" height="512" viewBox="0 0 36 36" width="512" xmlns="http://www.w3.org/2000/svg"><g><path d="m31.833 8.377c0 6.917 3.583 11.667 3.583 15s-1.916 10.333-17.249 10.333-17.584-9.417-17.584-13.083c0-17.167 31.25-24.5 31.25-12.25z" fill="#efefef"/></g><g><path d="m27.25 11.75h-6.25-6-6.25c-1.1 0-2 .9-2 2v13.5c0 1.1.9 2 2 2h15.5v-5h5v-10.5c0-1.1-.9-2-2-2z" fill="#f3f3f1"/></g><g><path d="m24.25 24.25v5l5-5z" fill="#2fdf84"/></g><g><circle cx="18" cy="8" fill="#2fdf84" r="1.25"/></g><g><path d="m9 27.25v-13.5c0-1.1.9-2 2-2h-2.25c-1.1 0-2 .9-2 2v13.5c0 1.1.9 2 2 2h2.25c-1.1 0-2-.9-2-2z" fill="#d5dbe1"/></g><g><path d="m26.5 24.25h-2.25v5l2.25-2.25z" fill="#00b871"/></g><g><path d="m24.25 30h-15.5c-1.517 0-2.75-1.233-2.75-2.75v-13.5c0-1.517 1.233-2.75 2.75-2.75h6.25v1.5h-6.25c-.689 0-1.25.561-1.25 1.25v13.5c0 .689.561 1.25 1.25 1.25h15.189l4.561-4.561v-10.189c0-.689-.561-1.25-1.25-1.25h-6.25v-1.5h6.25c1.517 0 2.75 1.233 2.75 2.75v10.5c0 .199-.079.39-.22.53l-5 5c-.14.141-.331.22-.53.22z"/></g><g><path d="m24.25 30c-.097 0-.194-.019-.287-.057-.28-.116-.463-.39-.463-.693v-5c0-.414.336-.75.75-.75h5c.303 0 .577.183.693.463s.052.603-.163.817l-5 5c-.143.144-.335.22-.53.22zm.75-5v2.439l2.439-2.439z"/></g><g><path d="m17.25 9.5h1.5v4.75h-1.5z"/></g><g><path d="m18 10c-1.103 0-2-.897-2-2s.897-2 2-2 2 .897 2 2-.897 2-2 2zm0-2.5c-.276 0-.5.225-.5.5s.224.5.5.5.5-.225.5-.5-.224-.5-.5-.5z"/></g><g><path d="m10.75 17h14.5v1.5h-14.5z"/></g><g><path d="m10.75 21h14.5v1.5h-14.5z"/></g><g><path d="m10.75 25h10.5v1.5h-10.5z"/></g><g><path d="m34.062 19.25c-.827 0-1.5-.673-1.5-1.5s.673-1.5 1.5-1.5 1.5.673 1.5 1.5-.672 1.5-1.5 1.5zm0-2c-.276 0-.5.225-.5.5s.224.5.5.5.5-.225.5-.5-.224-.5-.5-.5z" fill="#a4afc1"/></g><g><g><path d="m19.875 3.25h2v1h-2z" fill="#a4afc1"/></g><g><path d="m14.125 3.25h2v1h-2z" fill="#a4afc1"/></g><g><path d="m17.625 0h1v2h-1z" fill="#a4afc1"/></g></g></svg>