<svg id="Effect" enable-background="new 0 0 36 36" height="512" viewBox="0 0 36 36" width="512" xmlns="http://www.w3.org/2000/svg"><g><path d="m8.377 4.167c6.917 0 11.667-3.583 15-3.583s10.333 1.916 10.333 17.249-9.417 17.583-13.083 17.583c-17.167.001-24.5-31.249-12.25-31.249z" fill="#efefef"/></g><g><path d="m27.25 8.75v18.5c0 1.105-.895 2-2 2h-14.5c-1.105 0-2-.895-2-2v-18.5c0-1.105.895-2 2-2h14.5c1.105 0 2 .895 2 2z" fill="#2fdf84"/></g><g><path d="m11 27.25v-18.5c0-1.105.895-2 2-2h-2.25c-1.105 0-2 .895-2 2v18.5c0 1.105.895 2 2 2h2.25c-1.105 0-2-.895-2-2z" fill="#00b871"/></g><g><path d="m18 16.5h-1.5v-1h-4v1h-1.5v-1.75c0-.414.336-.75.75-.75h5.5c.414 0 .75.336.75.75z"/></g><g><path d="m13.75 14h1.5v7h-1.5z"/></g><g><path d="m13 19.5h3v1.5h-3z"/></g><g><path d="m20.75 14h3.5v1.5h-3.5z"/></g><g><path d="m20.75 16.75h3.5v1.5h-3.5z"/></g><g><path d="m20.75 19.5h3.5v1.5h-3.5z"/></g><g><path d="m11.75 22.5h12.5v1.5h-12.5z"/></g><g><path d="m11.75 25.5h12.5v1.5h-12.5z"/></g><g><path d="m25.25 30h-14.5c-1.517 0-2.75-1.233-2.75-2.75v-18.5c0-1.517 1.233-2.75 2.75-2.75h14.5c1.517 0 2.75 1.233 2.75 2.75v18.5c0 1.517-1.233 2.75-2.75 2.75zm-14.5-22.5c-.689 0-1.25.561-1.25 1.25v18.5c0 .689.561 1.25 1.25 1.25h14.5c.689 0 1.25-.561 1.25-1.25v-18.5c0-.689-.561-1.25-1.25-1.25z"/></g><g><path d="m6.537 33.213c-.827 0-1.5-.673-1.5-1.5s.673-1.5 1.5-1.5 1.5.673 1.5 1.5-.673 1.5-1.5 1.5zm0-2c-.276 0-.5.224-.5.5s.224.5.5.5.5-.224.5-.5-.224-.5-.5-.5z" fill="#a4afc1"/></g><g><path d="m29.98 6.77h1v2h-1z" fill="#a4afc1" transform="matrix(.707 -.707 .707 .707 3.433 23.828)"/></g><g><path d="m25.914 2.704h1v2h-1z" fill="#a4afc1" transform="matrix(.707 -.707 .707 .707 5.117 19.763)"/></g><g><path d="m29.48 3.381h2v1h-2z" fill="#a4afc1" transform="matrix(.707 -.707 .707 .707 6.183 22.689)"/></g></svg>