<svg id="Effect" enable-background="new 0 0 36 36" height="512" viewBox="0 0 36 36" width="512" xmlns="http://www.w3.org/2000/svg"><g><path d="m4.167 27.623c0-6.917-3.583-11.667-3.583-15s1.916-10.333 17.249-10.333 17.583 9.417 17.583 13.083c.001 17.167-31.249 24.5-31.249 12.25z" fill="#efefef"/></g><g><path d="m11.75 23.25v-5.15l-2.28 2.32c-1.1 1.12-1.72 2.63-1.72 4.2v4.63h7.5v-1.13c.92-.55 1.71-1.8 1.73-2.87h-3.23c-1.1 0-2-.9-2-2z" fill="#f3f3f1"/></g><g><path d="m23.25 8.75v2c0 .552-.448 1-1 1h-5.5c-.552 0-1-.448-1-1v-2h1.75c0-1.1.9-2 2-2s2 .9 2 2z" fill="#f3f3f1"/></g><g><path d="m25.25 9.75h-2v1c0 .552-.448 1-1 1h-5.5c-.552 0-1-.448-1-1v-1h-2c-1.1 0-2 .9-2 2v10.027l1.828-1.835c.308-.309.827-.225 1.022.167.242.486.19 1.068-.135 1.503l-1.842 2.467c.309.311.503.691.594 1.09.171.048.348.082.534.082h11.5c1.1 0 2-.9 2-2v-11.5c-.001-1.101-.901-2.001-2.001-2.001z" fill="#2fdf84"/></g><g><path d="m14.599 20.109c-.195-.391-.714-.476-1.022-.167l-3.328 3.342v5.966h2.372v-1.996c.873-.877.873-2.299 0-3.176l1.842-2.467c.326-.435.378-1.016.136-1.502z" fill="#f3f3f1"/></g><g><path d="m11.72 20.42.03-.031v-2.289l-2.28 2.32c-1.1 1.12-1.72 2.63-1.72 4.2v4.63h2.25v-4.63c0-1.57.62-3.08 1.72-4.2z" fill="#d5dbe1"/></g><g><path d="m18 10.75v-2h1.75c0-.683.348-1.289.875-1.65-.321-.22-.708-.35-1.125-.35-1.1 0-2 .9-2 2h-1.75v2c0 .552.448 1 1 1h2.25c-.552 0-1-.448-1-1z" fill="#d5dbe1"/></g><g><path d="m14 19.772v-8.022c0-1.014.768-1.849 1.75-1.975v-.025h-2c-1.1 0-2 .9-2 2v10.027l1.828-1.835c.119-.12.27-.164.422-.17z" fill="#00b871"/></g><g><path d="m25.5 10.75v-.975c-.083-.011-.164-.025-.25-.025h-2v1c0 .552-.448 1-1 1h2.25c.552 0 1-.448 1-1z" fill="#00b871"/></g><g><path d="m14.872 24.078 1.842-2.467c.325-.435.377-1.016.135-1.503-.195-.391-.714-.476-1.022-.167l-1.128 1.133c-.044.19-.114.374-.235.536l-1.842 2.467c.309.311.503.691.594 1.09.171.048.348.082.534.082h2.25c-.186 0-.363-.034-.534-.082-.091-.398-.285-.778-.594-1.089z" fill="#00b871"/></g><g><path d="m13.153 27.783-1.062-1.059c.582-.584.582-1.533 0-2.117-.263-.264-.292-.68-.07-.979l1.842-2.467c.123-.164.165-.37.12-.564l-3.202 3.216-1.062-1.059 3.328-3.342c.313-.314.76-.463 1.203-.391.44.07.822.352 1.021.751.371.745.292 1.621-.206 2.287l-1.499 2.007c.728 1.158.591 2.71-.413 3.717z"/></g><g><path d="m15.25 30h-7.5c-.414 0-.75-.336-.75-.75v-4.63c0-1.776.687-3.455 1.935-4.726l2.28-2.32 1.07 1.051-2.28 2.32c-.97.989-1.505 2.294-1.505 3.675v3.88h6v-.38c0-.264.139-.509.365-.644.725-.434 1.35-1.46 1.365-2.24l1.5.027c-.022 1.158-.743 2.481-1.73 3.25v.736c0 .415-.336.751-.75.751z"/></g><g><path d="m12.5 21.78h-1.5v-10.03c0-1.517 1.234-2.75 2.75-2.75h1.87v1.5h-1.87c-.689 0-1.25.561-1.25 1.25z"/></g><g><path d="m25.25 26h-11.5c-.275 0-.526-.035-.747-.105l.453-1.43c.051.015.144.035.294.035h11.5c.689 0 1.25-.561 1.25-1.25v-11.5c0-.689-.561-1.25-1.25-1.25h-1.87v-1.5h1.87c1.516 0 2.75 1.233 2.75 2.75v11.5c0 1.517-1.234 2.75-2.75 2.75z"/></g><g><path d="m22.25 12.5h-5.5c-.965 0-1.75-.785-1.75-1.75v-2c0-.414.336-.75.75-.75h1.104c.327-1.153 1.39-2 2.646-2s2.319.847 2.646 2h1.104c.414 0 .75.336.75.75v2c0 .965-.785 1.75-1.75 1.75zm-5.75-3v1.25c0 .138.112.25.25.25h5.5c.138 0 .25-.112.25-.25v-1.25h-1c-.414 0-.75-.336-.75-.75 0-.689-.561-1.25-1.25-1.25s-1.25.561-1.25 1.25c0 .414-.336.75-.75.75z"/></g><g><path d="m14.75 14h9.5v1.5h-9.5z"/></g><g><path d="m14.75 17h9.5v1.5h-9.5z"/></g><g><path d="m14.75 20h9.5v1.5h-9.5z"/></g><g><path d="m8.073 5.174h1.001v2h-1.001z" fill="#a4afc1" transform="matrix(.708 -.706 .706 .708 -1.857 7.856)"/></g><g><path d="m7.214 9.562h2v1.001h-2z" fill="#a4afc1" transform="matrix(.709 -.706 .706 .709 -4.707 8.728)"/></g><g><path d="m11.286 5.503h2v1.001h-2z" fill="#a4afc1" transform="matrix(.709 -.706 .706 .709 -.655 10.419)"/></g><g><path d="m31.967 21.742c-.001 0-.002 0-.003 0-.827-.001-1.499-.676-1.498-1.503.001-.826.674-1.497 1.5-1.497h.003c.827.001 1.499.676 1.498 1.503-.002.826-.675 1.497-1.5 1.497zm-.001-2c-.275 0-.499.224-.5.499s.224.5.5.501h.001c.275 0 .499-.224.5-.499l.5.001-.5-.001c0-.275-.224-.5-.501-.501z" fill="#a4afc1"/></g></svg>