<svg id="Effect" enable-background="new 0 0 36 36" height="512" viewBox="0 0 36 36" width="512" xmlns="http://www.w3.org/2000/svg"><g><path d="m27.623 4.167c-6.917 0-11.667-3.583-15-3.583s-10.333 1.916-10.333 17.249 9.417 17.583 13.083 17.583c17.167.001 24.5-31.249 12.25-31.249z" fill="#efefef"/></g><g><path d="m27.25 8.75v18.5c0 1.105-.895 2-2 2h-14.5c-1.105 0-2-.895-2-2v-18.5c0-1.105.895-2 2-2h14.5c1.105 0 2 .895 2 2z" fill="#2fdf84"/></g><g><path d="m11 27.25v-18.5c0-1.105.895-2 2-2h-2.25c-1.105 0-2 .895-2 2v18.5c0 1.105.895 2 2 2h2.25c-1.105 0-2-.895-2-2z" fill="#00b871"/></g><g><path d="m22.25 20h1.5v6h-1.5z"/></g><g><path d="m21 20h4v1.5h-4z"/></g><g><path d="m12.25 20h1.5v6h-1.5z"/></g><g><path d="m11 20h4v1.5h-4z"/></g><g><path d="m17.25 19.676h1.5v6.648h-1.5z" transform="matrix(.874 -.486 .486 .874 -8.905 11.636)"/></g><g><path d="m14.676 22.25h6.648v1.5h-6.648z" transform="matrix(.486 -.874 .874 .486 -10.847 27.567)"/></g><g><path d="m25.25 30h-14.5c-1.517 0-2.75-1.233-2.75-2.75v-18.5c0-1.517 1.233-2.75 2.75-2.75h14.5c1.517 0 2.75 1.233 2.75 2.75v18.5c0 1.517-1.233 2.75-2.75 2.75zm-14.5-22.5c-.689 0-1.25.561-1.25 1.25v18.5c0 .689.561 1.25 1.25 1.25h14.5c.689 0 1.25-.561 1.25-1.25v-18.5c0-.689-.561-1.25-1.25-1.25z"/></g><g><path d="m10.484 0h1v2h-1z" fill="#a4afc1"/></g><g><path d="m6.984 3h2v1h-2z" fill="#a4afc1"/></g><g><path d="m12.734 3h2v1h-2z" fill="#a4afc1"/></g><g><path d="m30.98 27.875c-.827 0-1.5-.673-1.5-1.5s.673-1.5 1.5-1.5 1.5.673 1.5 1.5-.673 1.5-1.5 1.5zm0-2c-.276 0-.5.224-.5.5s.224.5.5.5.5-.224.5-.5-.224-.5-.5-.5z" fill="#a4afc1"/></g></svg>