<svg id="Effect" enable-background="new 0 0 36 36" height="512" viewBox="0 0 36 36" width="512" xmlns="http://www.w3.org/2000/svg"><g><path d="m8.377 31.833c6.917 0 11.667 3.583 15 3.583s10.333-1.916 10.333-17.249-9.417-17.584-13.083-17.584c-17.167 0-24.5 31.25-12.25 31.25z" fill="#efefef"/></g><g><path d="m27.25 8.75v18.5c0 1.105-.895 2-2 2h-14.5c-1.105 0-2-.895-2-2v-18.5c0-1.105.895-2 2-2h14.5c1.105 0 2 .895 2 2z" fill="#2fdf84"/></g><g><path d="m11 27.25v-18.5c0-1.105.895-2 2-2h-2.25c-1.105 0-2 .895-2 2v18.5c0 1.105.895 2 2 2h2.25c-1.105 0-2-.895-2-2z" fill="#00b871"/></g><g><path d="m20 26h-3.25c-.414 0-.75-.336-.75-.75v-5.25h1.5v4.5h2.5z"/></g><g><path d="m12.25 19.676h1.499v6.648h-1.499z" transform="matrix(.874 -.486 .486 .874 -9.534 9.207)"/></g><g><path d="m9.676 22.25h6.648v1.499h-6.648z" transform="matrix(.486 -.874 .874 .486 -13.419 23.188)"/></g><g><path d="m23.208 26h-2.208v-1.5h2.208c.158 0 .292-.172.292-.375s-.134-.375-.292-.375h-.416c-.988 0-1.792-.841-1.792-1.875s.804-1.875 1.792-1.875h2.208v1.5h-2.208c-.158 0-.292.172-.292.375s.134.375.292.375h.416c.988 0 1.792.841 1.792 1.875s-.804 1.875-1.792 1.875z"/></g><g><path d="m25.25 30h-14.5c-1.517 0-2.75-1.233-2.75-2.75v-18.5c0-1.517 1.233-2.75 2.75-2.75h14.5c1.517 0 2.75 1.233 2.75 2.75v18.5c0 1.517-1.233 2.75-2.75 2.75zm-14.5-22.5c-.689 0-1.25.561-1.25 1.25v18.5c0 .689.561 1.25 1.25 1.25h14.5c.689 0 1.25-.561 1.25-1.25v-18.5c0-.689-.561-1.25-1.25-1.25z"/></g><g><path d="m4.97 2.641h1v2h-1z" fill="#a4afc1" transform="matrix(.707 -.707 .707 .707 -.973 4.934)"/></g><g><path d="m4.293 7.207h2v1h-2z" fill="#a4afc1" transform="matrix(.707 -.707 .707 .707 -3.899 6)"/></g><g><path d="m8.359 3.141h2v1h-2z" fill="#a4afc1" transform="matrix(.707 -.707 .707 .707 .166 7.684)"/></g><g><path d="m31.5 29.75c-.827 0-1.5-.673-1.5-1.5s.673-1.5 1.5-1.5 1.5.673 1.5 1.5-.673 1.5-1.5 1.5zm0-2c-.275 0-.5.224-.5.5s.225.5.5.5.5-.224.5-.5-.225-.5-.5-.5z" fill="#a4afc1"/></g></svg>