<svg id="Effect" enable-background="new 0 0 36 36" height="512" viewBox="0 0 36 36" width="512" xmlns="http://www.w3.org/2000/svg"><g><path d="m27.623 4.167c-6.917 0-11.667-3.583-15-3.583s-10.333 1.916-10.333 17.249 9.417 17.583 13.083 17.583c17.167.001 24.5-31.249 12.25-31.249z" fill="#efefef"/></g><g><path d="m27.25 8.75v18.5c0 1.105-.895 2-2 2h-14.5c-1.105 0-2-.895-2-2v-18.5c0-1.105.895-2 2-2h14.5c1.105 0 2 .895 2 2z" fill="#2fdf84"/></g><g><path d="m11 27.25v-18.5c0-1.105.895-2 2-2h-2.25c-1.105 0-2 .895-2 2v18.5c0 1.105.895 2 2 2h2.25c-1.105 0-2-.895-2-2z" fill="#00b871"/></g><g><path d="m16.75 20h1.5v6h-1.5z"/></g><g><path d="m15 26h-3.25c-.266 0-.512-.141-.646-.37s-.139-.512-.009-.745l1.881-3.386h-1.976v-1.499h3.25c.266 0 .512.141.646.37s.139.512.009.745l-1.881 3.385h1.976z"/></g><g><path d="m21.5 26h-1.5v-5.25c0-.414.336-.75.75-.75h1.25c1.103 0 2 .897 2 2s-.897 2-2 2h-.5zm0-3.5h.5c.275 0 .5-.224.5-.5s-.225-.5-.5-.5h-.5z"/></g><g><path d="m25.25 30h-14.5c-1.517 0-2.75-1.233-2.75-2.75v-18.5c0-1.517 1.233-2.75 2.75-2.75h14.5c1.517 0 2.75 1.233 2.75 2.75v18.5c0 1.517-1.233 2.75-2.75 2.75zm-14.5-22.5c-.689 0-1.25.561-1.25 1.25v18.5c0 .689.561 1.25 1.25 1.25h14.5c.689 0 1.25-.561 1.25-1.25v-18.5c0-.689-.561-1.25-1.25-1.25z"/></g><g><path d="m25.864 2.371h1v2h-1z" fill="#a4afc1" transform="matrix(.707 -.707 .707 .707 5.339 19.63)"/></g><g><path d="m29.93 6.436h1v2h-1z" fill="#a4afc1" transform="matrix(.707 -.707 .707 .707 3.652 23.691)"/></g><g><path d="m29.253 2.871h2v1h-2z" fill="#a4afc1" transform="matrix(.707 -.707 .707 .707 6.478 22.379)"/></g><g><path d="m4.645 26.75c-.827 0-1.5-.673-1.5-1.5s.673-1.5 1.5-1.5 1.5.673 1.5 1.5-.673 1.5-1.5 1.5zm0-2c-.275 0-.5.224-.5.5s.225.5.5.5.5-.224.5-.5-.225-.5-.5-.5z" fill="#a4afc1"/></g></svg>