<svg id="Effect" enable-background="new 0 0 36 36" height="512" viewBox="0 0 36 36" width="512" xmlns="http://www.w3.org/2000/svg"><g><path d="m8.377 31.833c6.917 0 11.667 3.583 15 3.583s10.333-1.916 10.333-17.249-9.417-17.584-13.083-17.584c-17.167 0-24.5 31.25-12.25 31.25z" fill="#efefef"/></g><g><path d="m27.25 26.25h-18.5c-1.105 0-2-.895-2-2v-12.5c0-1.105.895-2 2-2h5.25l2 2h11.25c1.105 0 2 .895 2 2v10.5c0 1.105-.895 2-2 2z" fill="#2fdf84"/></g><g><path d="m9 24.25v-12.5c0-1.105.895-2 2-2h-2.25c-1.105 0-2 .895-2 2v12.5c0 1.105.895 2 2 2h2.25c-1.105 0-2-.895-2-2z" fill="#00b871"/></g><g><path d="m27.25 27h-18.5c-1.517 0-2.75-1.233-2.75-2.75v-12.5c0-1.517 1.233-2.75 2.75-2.75h5.25c.199 0 .39.079.53.22l1.78 1.78h10.94c1.517 0 2.75 1.233 2.75 2.75v10.5c0 1.517-1.233 2.75-2.75 2.75zm-18.5-16.5c-.689 0-1.25.561-1.25 1.25v12.5c0 .689.561 1.25 1.25 1.25h18.5c.689 0 1.25-.561 1.25-1.25v-10.5c0-.689-.561-1.25-1.25-1.25h-11.25c-.199 0-.39-.079-.53-.22l-1.78-1.78z"/></g><g><path d="m16.75 16h1.5v6h-1.5z"/></g><g><path d="m15 22h-3.25c-.266 0-.512-.141-.646-.37-.135-.229-.139-.512-.009-.744l1.881-3.386h-1.976v-1.5h3.25c.266 0 .512.141.646.37.135.229.139.512.009.744l-1.881 3.386h1.976z"/></g><g><path d="m21.5 22h-1.5v-5.25c0-.414.336-.75.75-.75h1.25c1.103 0 2 .897 2 2s-.897 2-2 2h-.5zm0-3.5h.5c.275 0 .5-.225.5-.5s-.225-.5-.5-.5h-.5z"/></g><g><path d="m31.999 11.251c-.228 0-.453-.053-.663-.156-.359-.177-.628-.484-.757-.864-.129-.379-.102-.786.076-1.145.177-.359.484-.628.864-.757s.786-.101 1.145.076c.359.178.628.484.757.864.129.379.102.786-.076 1.145-.177.359-.484.628-.864.757-.158.054-.321.08-.482.08zm.001-2.001c-.054 0-.107.009-.16.026-.126.043-.229.133-.288.252-.06.12-.068.256-.025.382s.133.229.252.288c.12.059.255.068.382.025.126-.043.229-.133.288-.252.06-.12.068-.256.025-.382s-.133-.229-.252-.288c-.001 0-.001 0-.001 0-.07-.033-.145-.051-.221-.051z" fill="#a4afc1"/></g><g><path d="m5.927 5.556h2v1h-2z" fill="#a4afc1" transform="matrix(.707 -.707 .707 .707 -2.253 6.672)"/></g><g><path d="m1.861 9.621h2v1h-2z" fill="#a4afc1" transform="matrix(.707 -.707 .707 .707 -6.319 4.987)"/></g><g><path d="m2.538 5.056h1v2h-1z" fill="#a4afc1" transform="matrix(.707 -.707 .707 .707 -3.392 3.922)"/></g></svg>